<svg width="77" height="70" viewBox="0 0 77 70" fill="none" xmlns="http://www.w3.org/2000/svg">
<path d="M32.8856 32.8125H2.40625C1.078 32.8125 0 31.8325 0 30.625C0 29.4175 1.078 28.4375 2.40625 28.4375H32.8856C34.2139 28.4375 35.2919 29.4175 35.2919 30.625C35.2919 31.8325 34.2139 32.8125 32.8856 32.8125Z" fill="black"/>
<path d="M20.8544 43.75C20.2381 43.75 19.6225 43.5369 19.1537 43.1086C18.2137 42.2536 18.2137 40.8682 19.1537 40.0137L29.4848 30.6223L19.1537 21.2336C18.2137 20.3786 18.2137 18.9932 19.1537 18.1387C20.0936 17.2842 21.6175 17.2842 22.558 18.1387L34.5893 29.0762C35.5292 29.9307 35.5292 31.3161 34.5893 32.1711L22.558 43.1086C22.0863 43.5369 21.4701 43.75 20.8544 43.75Z" fill="black"/>
<path d="M51.333 69.9995C47.7941 69.9995 44.9167 67.3831 44.9167 64.166V11.666C44.9167 9.17245 46.6621 6.94703 49.2605 6.12725L68.5363 0.285194C72.8483 -0.916436 76.9999 1.99151 76.9999 5.83298V58.333C76.9999 60.8238 75.2545 63.046 72.6591 63.8685L53.3768 69.7137C52.6742 69.9119 52.0233 69.9995 51.333 69.9995ZM70.583 4.37447C70.3745 4.37447 70.1982 4.39797 70.0091 4.45031L50.8137 10.2689C50.1845 10.4675 49.7292 11.0449 49.7292 11.666V64.166C49.7292 65.1609 50.9159 65.8317 51.9076 65.5486L71.1029 59.7301C71.7286 59.5314 72.1874 58.9541 72.1874 58.333V5.83298C72.1874 5.03083 71.4689 4.37447 70.583 4.37447Z" fill="black"/>
<path d="M28.073 14.5835C26.7447 14.5835 25.6667 13.6035 25.6667 12.396V8.02101C25.6667 3.59634 29.6221 0 34.4893 0H70.583C71.9113 0 72.9893 0.979996 72.9893 2.1875C72.9893 3.395 71.9113 4.375 70.583 4.375H34.4893C32.2786 4.375 30.4792 6.01135 30.4792 8.02101V12.396C30.4792 13.6035 29.4013 14.5835 28.073 14.5835Z" fill="black"/>
<path d="M47.323 61.25H34.4893C29.6221 61.25 25.6667 57.6537 25.6667 53.229V48.854C25.6667 47.6465 26.7447 46.6665 28.073 46.6665C29.4013 46.6665 30.4792 47.6465 30.4792 48.854V53.229C30.4792 55.2387 32.2786 56.875 34.4893 56.875H47.323C48.6513 56.875 49.7292 57.855 49.7292 59.0625C49.7292 60.27 48.6513 61.25 47.323 61.25Z" fill="black"/>
</svg>
