<svg width="72" height="64" viewBox="0 0 72 64" fill="none" xmlns="http://www.w3.org/2000/svg">
<g clip-path="url(#clip0)">
<path d="M53.2371 0H10.9674C9.01801 0 7.43232 1.40962 7.43232 3.14237V4.33862H5.69616C3.74696 4.33862 2.16113 5.74825 2.16113 7.481V47.6455C2.16113 48.1634 2.63335 48.583 3.21582 48.583C3.79829 48.583 4.27051 48.1634 4.27051 47.6455V7.481C4.27051 6.78212 4.91007 6.21362 5.69616 6.21362H47.9659C48.752 6.21362 49.3916 6.78212 49.3916 7.481V60.8577C49.3916 61.5566 48.752 62.1251 47.9659 62.1251H5.69616C4.91007 62.1251 4.27051 61.5566 4.27051 60.8577V52.0206C4.27051 51.5028 3.79829 51.0831 3.21582 51.0831C2.63335 51.0831 2.16113 51.5028 2.16113 52.0206V60.8577C2.16113 62.5904 3.74696 64.0001 5.69616 64.0001H47.9659C49.9151 64.0001 51.501 62.5905 51.501 60.8577V59.6615H53.237C55.1862 59.6615 56.772 58.2519 56.772 56.5191V15.0611C56.772 14.5433 56.2998 14.1236 55.7173 14.1236C55.1349 14.1236 54.6626 14.5433 54.6626 15.0611V56.519C54.6626 57.2179 54.0231 57.7864 53.237 57.7864H51.8911V7.481C51.8911 5.74837 50.3052 4.33862 48.356 4.33862C47.7752 4.33862 9.80902 4.33862 9.54156 4.33862V3.14237C9.5417 2.4435 10.1811 1.875 10.9674 1.875H53.2371C54.0232 1.875 54.6628 2.4435 54.6628 3.14237V10.6862C54.6628 11.2041 55.135 11.6237 55.7175 11.6237C56.2999 11.6237 56.7722 11.2041 56.7722 10.6862V3.14237C56.7722 1.40962 55.1863 0 53.2371 0V0Z" fill="black"/>
<path d="M67.4602 18.5995H61.8334C60.5218 18.5995 59.4547 19.548 59.4547 20.7139V47.3268C59.4547 47.3449 59.4567 47.3625 59.4578 47.3804C59.4584 47.3901 59.4585 47.3999 59.4595 47.4097C59.4669 47.4846 59.4845 47.5569 59.5105 47.6258C59.5134 47.633 59.5166 47.6403 59.5195 47.6475C59.5314 47.6763 59.5447 47.7044 59.5595 47.7319C59.5619 47.7363 59.5634 47.741 59.5659 47.7454L63.0267 53.9087C63.3639 54.5093 63.9696 54.8679 64.647 54.8679C65.3244 54.8679 65.9301 54.5093 66.2671 53.9088L69.7279 47.7454C69.731 47.74 69.7328 47.7343 69.7358 47.7289C69.7494 47.7035 69.7617 47.6775 69.7728 47.6509C69.7766 47.6418 69.7805 47.6329 69.7839 47.6238C69.796 47.5916 69.8065 47.5588 69.8147 47.5251C69.8152 47.5228 69.8162 47.5205 69.8168 47.5181C69.825 47.4834 69.8304 47.4478 69.8341 47.4116C69.8354 47.3994 69.8355 47.3871 69.8362 47.3749C69.8372 47.3589 69.8389 47.343 69.8389 47.3268C69.8389 46.3543 69.8389 22.0421 69.8389 20.7139C69.8389 19.548 68.7718 18.5995 67.4602 18.5995ZM64.6469 52.5958L62.2148 48.2644H67.0791L64.6469 52.5958ZM67.7295 46.3893H61.5642V26.3415H67.7295V46.3893ZM67.7295 24.4665H61.5642V20.7139C61.5642 20.5819 61.685 20.4745 61.8335 20.4745H67.4603C67.6088 20.4745 67.7296 20.5819 67.7296 20.7139V24.4665H67.7295Z" fill="black"/>
<path d="M8.18689 57.0322C8.18689 58.1005 9.16466 58.9697 10.3666 58.9697H16.179C17.381 58.9697 18.3587 58.1005 18.3587 57.0322V52.0952L20.765 49.8198C21.1639 49.4425 21.1432 48.8492 20.7188 48.4945C20.2944 48.1399 19.627 48.1583 19.2279 48.5355L17.4016 50.2625C17.0527 50.0515 16.6318 49.928 16.179 49.928H10.3666C9.16466 49.928 8.18689 50.7972 8.18689 51.8655V57.0322ZM16.2493 54.0898V57.0322C16.2493 57.0665 16.2178 57.0947 16.179 57.0947H13.0534C13.0948 57.0658 13.1349 57.0348 13.1716 57.0002L16.2493 54.0898ZM10.2963 51.8655C10.2963 51.8312 10.3278 51.803 10.3666 51.803H15.7726L12.5509 54.8495L10.6608 52.2892C10.565 52.1594 10.4387 52.0583 10.2964 51.9872V51.8655H10.2963ZM10.2963 55.2133C11.6318 57.0223 11.5674 56.9658 11.7519 57.0947H10.3666C10.3278 57.0947 10.2963 57.0665 10.2963 57.0322V55.2133Z" fill="black"/>
<path d="M44.3848 53.5114H21.9786C21.3962 53.5114 20.924 53.931 20.924 54.4489C20.924 54.9667 21.3962 55.3864 21.9786 55.3864H44.3848C44.9673 55.3864 45.4395 54.9667 45.4395 54.4489C45.4395 53.931 44.9673 53.5114 44.3848 53.5114Z" fill="black"/>
<path d="M10.6478 30.3639H29.3452C30.7021 30.3639 31.8061 29.3825 31.8061 28.1764V11.5564C31.8061 10.3502 30.7021 9.36887 29.3452 9.36887H10.6478C9.29094 9.36887 8.18689 10.3502 8.18689 11.5564V28.1764C8.18689 29.3826 9.29094 30.3639 10.6478 30.3639ZM10.2963 11.5564C10.2963 11.384 10.454 11.2439 10.6478 11.2439H29.3452C29.539 11.2439 29.6967 11.384 29.6967 11.5564V28.1764C29.6967 28.3487 29.539 28.4889 29.3452 28.4889H10.6478C10.454 28.4889 10.2963 28.3487 10.2963 28.1764V11.5564Z" fill="black"/>
<path d="M15.8907 26.9862C16.4729 26.9862 16.9468 26.5662 16.9468 26.05V24.025C16.9496 22.5363 18.3107 21.3216 19.9837 21.3127C19.9881 21.3127 19.9923 21.313 19.9967 21.313C20.0012 21.313 20.0055 21.3127 20.0099 21.3127C21.683 21.3215 23.0443 22.5362 23.0471 24.025V25.1123H20.8126C20.2318 25.1123 19.7579 25.5323 19.7579 26.0498C19.7579 26.5661 20.2318 26.9873 20.8126 26.9873C20.814 26.9873 20.8154 26.9873 20.8154 26.9861H24.1018C24.3788 26.9861 24.6516 26.8861 24.8471 26.7125C25.044 26.5375 25.1565 26.2962 25.1565 26.0498V24.025C25.1565 22.7986 24.6193 21.6473 23.6447 20.7812C23.4609 20.6178 23.2658 20.4683 23.0607 20.3333C24.1319 19.547 24.8157 18.358 24.8157 17.0296C24.8157 14.6676 22.6539 12.7458 19.9967 12.7458C17.3394 12.7458 15.1776 14.6675 15.1776 17.0296C15.1776 18.3578 15.8613 19.5468 16.9323 20.3332C16.7271 20.4683 16.5317 20.6178 16.3477 20.7813C15.3732 21.6476 14.8374 22.7988 14.8374 24.0251V26.05C14.8374 26.2963 14.9499 26.5375 15.1454 26.7126C15.3422 26.8862 15.6137 26.9862 15.8907 26.9862ZM19.9967 14.6208C21.4908 14.6208 22.7064 15.7015 22.7064 17.0296C22.7064 18.355 21.4957 19.4332 20.0058 19.4377C20.0028 19.4377 19.9999 19.4376 19.9969 19.4376C19.9938 19.4376 19.9907 19.4377 19.9877 19.4378C18.4977 19.4335 17.2869 18.3551 17.2869 17.0297C17.2869 15.7013 18.5025 14.6208 19.9967 14.6208Z" fill="black"/>
<path d="M35.063 15.8209H44.3847C44.9672 15.8209 45.4394 15.4013 45.4394 14.8834C45.4394 14.3655 44.9672 13.9459 44.3847 13.9459H35.063C34.4805 13.9459 34.0083 14.3655 34.0083 14.8834C34.0083 15.4013 34.4805 15.8209 35.063 15.8209Z" fill="black"/>
<path d="M35.063 21.136H44.3847C44.9672 21.136 45.4394 20.7164 45.4394 20.1985C45.4394 19.6806 44.9672 19.261 44.3847 19.261H35.063C34.4805 19.261 34.0083 19.6806 34.0083 20.1985C34.0083 20.7164 34.4805 21.136 35.063 21.136Z" fill="black"/>
<path d="M35.063 26.8051H44.3847C44.9672 26.8051 45.4394 26.3855 45.4394 25.8676C45.4394 25.3497 44.9672 24.9301 44.3847 24.9301H35.063C34.4805 24.9301 34.0083 25.3497 34.0083 25.8676C34.0083 26.3855 34.4805 26.8051 35.063 26.8051Z" fill="black"/>
<path d="M9.24158 35.8581H44.3848C44.9672 35.8581 45.4394 35.4385 45.4394 34.9206C45.4394 34.4027 44.9672 33.9831 44.3848 33.9831H9.24158C8.65911 33.9831 8.18689 34.4027 8.18689 34.9206C8.18689 35.4385 8.65911 35.8581 9.24158 35.8581Z" fill="black"/>
<path d="M9.24158 41.1732H44.3848C44.9672 41.1732 45.4394 40.7535 45.4394 40.2357C45.4394 39.7178 44.9672 39.2982 44.3848 39.2982H9.24158C8.65911 39.2982 8.18689 39.7178 8.18689 40.2357C8.18689 40.7535 8.65911 41.1732 9.24158 41.1732Z" fill="black"/>
<path d="M9.24158 46.4881H44.3848C44.9672 46.4881 45.4394 46.0685 45.4394 45.5506C45.4394 45.0327 44.9672 44.6131 44.3848 44.6131H9.24158C8.65911 44.6131 8.18689 45.0327 8.18689 45.5506C8.18689 46.0685 8.65911 46.4881 9.24158 46.4881Z" fill="black"/>
</g>
<defs>
<clipPath id="clip0">
<rect width="72" height="64" fill="white"/>
</clipPath>
</defs>
</svg>
