<svg width="47" height="38" viewBox="0 0 47 38" fill="none" xmlns="http://www.w3.org/2000/svg">
<g clip-path="url(#clip0)">
<path d="M34.0417 0H7.01291C5.76643 0 4.75248 0.823166 4.75248 1.83502V2.53359H3.64232C2.39593 2.53359 1.3819 3.35675 1.3819 4.36861V27.8231C1.3819 28.1255 1.68385 28.3706 2.0563 28.3706C2.42875 28.3706 2.73071 28.1255 2.73071 27.8231V4.36861C2.73071 3.96049 3.13967 3.62851 3.64232 3.62851H30.6711C31.1738 3.62851 31.5827 3.96049 31.5827 4.36861V35.5385C31.5827 35.9467 31.1738 36.2786 30.6711 36.2786H3.64232C3.13967 36.2786 2.73071 35.9467 2.73071 35.5385V30.378C2.73071 30.0756 2.42875 29.8305 2.0563 29.8305C1.68385 29.8305 1.3819 30.0756 1.3819 30.378V35.5385C1.3819 36.5503 2.39593 37.3736 3.64232 37.3736H30.6711C31.9175 37.3736 32.9315 36.5504 32.9315 35.5385V34.84H34.0416C35.288 34.84 36.302 34.0168 36.302 33.005V8.79511C36.302 8.49269 36.0001 8.24764 35.6276 8.24764C35.2552 8.24764 34.9532 8.49269 34.9532 8.79511V33.0049C34.9532 33.413 34.5443 33.745 34.0416 33.745H33.181V4.36861C33.181 3.35683 32.1669 2.53359 30.9205 2.53359C30.5492 2.53359 6.27223 2.53359 6.1012 2.53359V1.83502C6.10129 1.42691 6.51016 1.09493 7.01291 1.09493H34.0417C34.5443 1.09493 34.9533 1.42691 34.9533 1.83502V6.24035C34.9533 6.54277 35.2553 6.78781 35.6277 6.78781C36.0002 6.78781 36.3021 6.54277 36.3021 6.24035V1.83502C36.3021 0.823166 35.2881 0 34.0417 0V0Z" fill="#AF4FFB"/>
<path d="M43.1365 10.8614H39.5385C38.6998 10.8614 38.0175 11.4153 38.0175 12.0961V27.637C38.0175 27.6476 38.0187 27.6579 38.0194 27.6683C38.0198 27.674 38.0199 27.6797 38.0205 27.6854C38.0253 27.7292 38.0365 27.7714 38.0532 27.8116C38.055 27.8158 38.057 27.8201 38.0589 27.8243C38.0665 27.8411 38.075 27.8575 38.0844 27.8736C38.086 27.8761 38.087 27.8789 38.0886 27.8814L40.3015 31.4805C40.5172 31.8313 40.9044 32.0407 41.3376 32.0407C41.7707 32.0407 42.158 31.8313 42.3736 31.4806L44.5865 27.8814C44.5885 27.8783 44.5897 27.8749 44.5915 27.8718C44.6003 27.857 44.6081 27.8418 44.6152 27.8263C44.6176 27.8209 44.6201 27.8157 44.6223 27.8104C44.63 27.7917 44.6368 27.7725 44.642 27.7528C44.6424 27.7514 44.643 27.7501 44.6433 27.7487C44.6486 27.7284 44.6521 27.7076 44.6544 27.6865C44.6552 27.6794 44.6553 27.6722 44.6558 27.6651C44.6564 27.6557 44.6575 27.6465 44.6575 27.637C44.6575 27.0691 44.6575 12.8717 44.6575 12.0961C44.6575 11.4153 43.9751 10.8614 43.1365 10.8614ZM41.3375 30.7139L39.7823 28.1845H42.8928L41.3375 30.7139ZM43.3087 27.0895H39.3664V15.3824H43.3087V27.0895ZM43.3087 14.2875H39.3664V12.0961C39.3664 12.019 39.4436 11.9563 39.5386 11.9563H43.1365C43.2315 11.9563 43.3087 12.019 43.3087 12.0961V14.2875H43.3087Z" fill="#AF4FFB"/>
<path d="M5.23499 33.3046C5.23499 33.9284 5.8602 34.436 6.62876 34.436H10.3454C11.114 34.436 11.7392 33.9284 11.7392 33.3046V30.4215L13.2778 29.0928C13.5329 28.8725 13.5197 28.526 13.2483 28.3189C12.977 28.1118 12.5502 28.1226 12.295 28.3429L11.1272 29.3514C10.9041 29.2281 10.635 29.156 10.3454 29.156H6.62876C5.8602 29.156 5.23499 29.6636 5.23499 30.2874V33.3046ZM10.3904 31.5863V33.3046C10.3904 33.3246 10.3703 33.341 10.3454 33.341H8.34678C8.3733 33.3242 8.39893 33.3061 8.4224 33.2859L10.3904 31.5863ZM6.58379 30.2874C6.58379 30.2674 6.60394 30.2509 6.62876 30.2509H10.0856L8.02549 32.03L6.81687 30.5348C6.75563 30.4591 6.67488 30.4 6.58388 30.3585V30.2874H6.58379ZM6.58379 32.2424C7.43777 33.2988 7.39659 33.2658 7.51456 33.341H6.62876C6.60394 33.341 6.58379 33.3246 6.58379 33.3046V32.2424Z" fill="#AF4FFB"/>
<path d="M28.3812 31.2485H14.0539C13.6814 31.2485 13.3795 31.4936 13.3795 31.796C13.3795 32.0984 13.6814 32.3435 14.0539 32.3435H28.3812C28.7536 32.3435 29.0556 32.0984 29.0556 31.796C29.0556 31.4936 28.7536 31.2485 28.3812 31.2485Z" fill="#AF4FFB"/>
<path d="M6.8086 17.7313H18.7643C19.632 17.7313 20.338 17.1582 20.338 16.4539V6.74848C20.338 6.04415 19.632 5.47107 18.7643 5.47107H6.8086C5.94095 5.47107 5.23499 6.04415 5.23499 6.74848V16.4539C5.23499 17.1583 5.94095 17.7313 6.8086 17.7313ZM6.58379 6.74848C6.58379 6.64782 6.68468 6.566 6.8086 6.566H18.7643C18.8883 6.566 18.9891 6.64782 18.9891 6.74848V16.4539C18.9891 16.5546 18.8883 16.6364 18.7643 16.6364H6.8086C6.68468 16.6364 6.58379 16.5546 6.58379 16.4539V6.74848Z" fill="#AF4FFB"/>
<path d="M10.161 15.7589C10.5333 15.7589 10.8363 15.5136 10.8363 15.2121V14.0296C10.8381 13.1603 11.7085 12.451 12.7783 12.4458C12.781 12.4458 12.7837 12.4459 12.7865 12.4459C12.7894 12.4459 12.7922 12.4458 12.795 12.4458C13.8649 12.4509 14.7353 13.1602 14.7371 14.0296V14.6646H13.3082C12.9369 14.6646 12.6338 14.9099 12.6338 15.2121C12.6338 15.5135 12.9369 15.7595 13.3082 15.7595C13.3091 15.7595 13.31 15.7595 13.31 15.7588H15.4115C15.5886 15.7588 15.7631 15.7004 15.8881 15.599C16.014 15.4968 16.0859 15.3559 16.0859 15.2121V14.0296C16.0859 13.3135 15.7424 12.6412 15.1192 12.1354C15.0017 12.04 14.8769 11.9527 14.7458 11.8739C15.4307 11.4146 15.868 10.7203 15.868 9.9446C15.868 8.56528 14.4857 7.44305 12.7865 7.44305C11.0874 7.44305 9.70504 8.56521 9.70504 9.9446C9.70504 10.7202 10.1422 11.4146 10.8271 11.8738C10.6959 11.9527 10.5709 12.04 10.4533 12.1355C9.83012 12.6413 9.48752 13.3136 9.48752 14.0297V15.2121C9.48752 15.356 9.55945 15.4968 9.68444 15.5991C9.81033 15.7005 9.98388 15.7589 10.161 15.7589ZM12.7865 8.53798C13.7419 8.53798 14.5192 9.16902 14.5192 9.9446C14.5192 10.7186 13.7451 11.3482 12.7924 11.3508C12.7905 11.3508 12.7886 11.3508 12.7867 11.3508C12.7847 11.3508 12.7827 11.3508 12.7808 11.3509C11.8281 11.3484 11.0538 10.7186 11.0538 9.94467C11.0538 9.16895 11.8311 8.53798 12.7865 8.53798Z" fill="#AF4FFB"/>
<path d="M22.4205 9.23878H28.3812C28.7536 9.23878 29.0556 8.99374 29.0556 8.69132C29.0556 8.3889 28.7536 8.14386 28.3812 8.14386H22.4205C22.0481 8.14386 21.7461 8.3889 21.7461 8.69132C21.7461 8.99374 22.0481 9.23878 22.4205 9.23878Z" fill="#AF4FFB"/>
<path d="M22.4205 12.3426H28.3812C28.7536 12.3426 29.0556 12.0976 29.0556 11.7951C29.0556 11.4927 28.7536 11.2477 28.3812 11.2477H22.4205C22.0481 11.2477 21.7461 11.4927 21.7461 11.7951C21.7461 12.0976 22.0481 12.3426 22.4205 12.3426Z" fill="#AF4FFB"/>
<path d="M22.4205 15.6531H28.3812C28.7536 15.6531 29.0556 15.408 29.0556 15.1056C29.0556 14.8032 28.7536 14.5582 28.3812 14.5582H22.4205C22.0481 14.5582 21.7461 14.8032 21.7461 15.1056C21.7461 15.408 22.0481 15.6531 22.4205 15.6531Z" fill="#AF4FFB"/>
<path d="M5.90939 20.9397H28.3812C28.7536 20.9397 29.0556 20.6947 29.0556 20.3923C29.0556 20.0898 28.7536 19.8448 28.3812 19.8448H5.90939C5.53694 19.8448 5.23499 20.0898 5.23499 20.3923C5.23499 20.6947 5.53694 20.9397 5.90939 20.9397Z" fill="#AF4FFB"/>
<path d="M5.90939 24.0435H28.3812C28.7536 24.0435 29.0556 23.7985 29.0556 23.4961C29.0556 23.1937 28.7536 22.9486 28.3812 22.9486H5.90939C5.53694 22.9486 5.23499 23.1937 5.23499 23.4961C5.23499 23.7985 5.53694 24.0435 5.90939 24.0435Z" fill="#AF4FFB"/>
<path d="M5.90939 27.1472H28.3812C28.7536 27.1472 29.0556 26.9022 29.0556 26.5998C29.0556 26.2974 28.7536 26.0523 28.3812 26.0523H5.90939C5.53694 26.0523 5.23499 26.2974 5.23499 26.5998C5.23499 26.9022 5.53694 27.1472 5.90939 27.1472Z" fill="#AF4FFB"/>
</g>
<defs>
<clipPath id="clip0">
<rect width="46.0393" height="37.3735" fill="white"/>
</clipPath>
</defs>
</svg>
