<svg width="27" height="33" viewBox="0 0 27 33" fill="none" xmlns="http://www.w3.org/2000/svg">
<path d="M23.0625 0H3.93752C3.6266 0 3.375 0.307506 3.375 0.687521V30.25C3.375 31.7667 4.38465 33 5.62502 33H21.375C22.6153 33 23.625 31.7667 23.625 30.25V0.687521C23.625 0.307506 23.3734 0 23.0625 0ZM22.5 30.25C22.5 31.0079 21.9957 31.625 21.375 31.625H5.62502C5.00428 31.625 4.50004 31.0079 4.50004 30.25V1.37498H22.5V30.25Z" fill="#AF4FFB"/>
<path d="M10.125 9.62498H16.875C18.1154 9.62498 19.125 8.39167 19.125 6.87496C19.125 5.35825 18.1154 4.125 16.875 4.125H10.125C8.88464 4.125 7.87498 5.35831 7.87498 6.87502C7.87498 8.39173 8.88464 9.62498 10.125 9.62498ZM10.125 5.49998H16.875C17.4957 5.49998 18 6.11699 18 6.87496C18 7.63293 17.4957 8.24994 16.875 8.24994H10.125C9.50427 8.24994 9.00002 7.63293 9.00002 6.87496C9.00002 6.11699 9.50427 5.49998 10.125 5.49998Z" fill="#AF4FFB"/>
</svg>
