<svg width="308" height="264" viewBox="0 0 308 264" fill="none" xmlns="http://www.w3.org/2000/svg">
<g clip-path="url(#clip0)">
<path d="M298.674 138.536L240.4 69.7331C238 66.8993 234.169 65.2235 230.093 65.2235H13.3375C6.29478 65.2235 0.585815 70.1343 0.585815 76.1924V213.797C0.585815 219.855 6.29478 224.766 13.3375 224.766H230.093C234.169 224.766 238 223.089 240.4 220.256L298.674 151.454C301.934 147.604 301.934 142.385 298.674 138.536ZM240.119 144.995C240.119 137.679 247.018 131.744 255.523 131.744C264.035 131.744 270.933 137.679 270.933 144.995C270.933 152.311 264.035 158.245 255.523 158.245C247.018 158.245 240.119 152.311 240.119 144.995Z" fill="black"/>
<path d="M298.676 138.538L247.509 78.1275C243.037 152.331 171.675 211.319 84.2961 211.319C53.7012 211.319 25.0725 204.09 0.585815 191.503V213.799C0.585815 219.857 6.29238 224.766 13.3357 224.766H230.095C234.171 224.766 238.002 223.09 240.399 220.254L298.676 151.455C301.937 147.603 301.937 142.385 298.676 138.538ZM255.523 158.245C247.017 158.245 240.118 152.311 240.118 144.994C240.118 137.677 247.017 131.742 255.523 131.742C264.035 131.742 270.934 137.677 270.934 144.994C270.934 152.311 264.035 158.245 255.523 158.245Z" fill="black"/>
<path d="M25.0593 195.991V95.0272C25.0593 90.766 29.0658 87.3077 34.0189 87.2928L198.648 86.7952C203.626 86.7803 207.671 90.2473 207.671 94.5296V195.494C207.671 199.755 203.664 203.213 198.711 203.228L34.0825 203.726C29.1042 203.741 25.0593 200.273 25.0593 195.991Z" fill="white"/>
<path d="M207.671 107.647V195.494C207.671 199.753 203.666 203.213 198.709 203.229L34.0819 203.723C29.1066 203.739 25.0605 200.274 25.0605 195.989V164.541C44.512 177.617 68.9986 185.414 95.6013 185.414C150.593 185.414 196.551 152.099 207.671 107.647Z" fill="white"/>
<path d="M20.8735 76.0315V76.3981C20.8735 82.3814 26.5255 87.2262 33.4813 87.2051L154.39 86.8385C161.311 86.8173 166.909 81.9854 166.909 76.0315C166.909 70.0631 161.284 65.2245 154.346 65.2245H33.4369C26.4985 65.225 20.8735 70.0631 20.8735 76.0315Z" fill="black"/>
<path d="M104.669 65.2251H63.9173C56.9214 65.2251 51.2508 70.1034 51.2508 76.1208V76.2445C51.2508 82.2773 56.9489 87.1618 63.9622 87.1402L104.714 87.0164C111.692 86.9953 117.337 82.1232 117.337 76.1208C117.336 70.1029 111.665 65.2251 104.669 65.2251Z" fill="black"/>
<path d="M307.493 94.989C307.493 125.735 278.42 150.744 242.677 150.744C242.333 150.744 241.982 150.744 241.638 150.733C240.662 149 240.121 147.053 240.121 144.996C240.121 143.137 240.567 141.365 241.376 139.758C241.81 139.769 242.244 139.775 242.677 139.775C271.387 139.775 294.742 119.685 294.742 94.989C294.742 70.2983 271.387 50.2034 242.677 50.2034C227.248 50.2034 213.367 56.0171 203.829 65.2251H187.903C199.398 49.6218 219.654 39.2345 242.677 39.2345C278.42 39.234 307.493 64.2485 307.493 94.989Z" fill="white"/>
<path d="M287.071 128.286C284.725 125.95 280.616 125.774 277.98 127.87C268.695 135.255 256.29 139.775 242.677 139.775C242.243 139.775 241.809 139.769 241.376 139.758C240.566 141.365 240.12 143.137 240.12 144.996C240.12 147.053 240.662 149 241.637 150.733C241.981 150.744 242.332 150.744 242.677 150.744C259.654 150.744 275.124 145.1 286.69 135.88C289.174 133.9 289.37 130.573 287.155 128.37C287.128 128.342 287.1 128.314 287.071 128.286Z" fill="white"/>
<path d="M300.527 93.3949C304.426 93.3949 307.393 90.4171 306.844 87.0975C303.071 64.2951 283.2 45.8903 257.474 40.7031C253.481 39.8982 249.662 42.529 249.662 46.0569V46.0584C249.662 48.5896 251.669 50.8125 254.534 51.3884C275.218 55.5495 291.194 70.3433 294.215 88.6759C294.661 91.3824 297.35 93.3949 300.527 93.3949Z" fill="white"/>
<path d="M288.48 63.213C288.511 63.1842 288.542 63.1553 288.574 63.1264C290.907 60.9959 290.862 57.6464 288.455 55.5787C284.279 51.9925 279.538 48.8936 274.359 46.3882C271.296 44.9063 267.408 45.9164 265.753 48.5832C265.733 48.6157 265.713 48.6482 265.693 48.6802C264.088 51.2634 265.129 54.5021 268.097 55.9381C272.268 57.9562 276.084 60.4555 279.444 63.3461C281.954 65.5055 286.046 65.4359 288.48 63.213Z" fill="white"/>
<path d="M186.979 106.138H178.795C175.216 106.138 172.315 103.642 172.315 100.563C172.315 97.4845 175.216 94.9889 178.795 94.9889H186.979C190.559 94.9889 193.46 97.4845 193.46 100.563C193.46 103.642 190.559 106.138 186.979 106.138Z" fill="black"/>
<path d="M116.364 192.919C146.686 192.919 171.267 171.775 171.267 145.692C171.267 119.609 146.686 98.4648 116.364 98.4648C86.0417 98.4648 61.4608 119.609 61.4608 145.692C61.4608 171.775 86.0417 192.919 116.364 192.919Z" fill="#AF4FFB"/>
<path d="M171.27 145.689C171.27 171.772 146.685 192.92 116.363 192.92C112.763 192.92 109.253 192.623 105.852 192.048C132.927 188.351 153.619 168.177 153.619 143.844C153.619 123.265 138.818 105.662 117.869 98.4782C147.493 99.1666 171.27 120.043 171.27 145.689Z" fill="#AF4FFB"/>
<path d="M91.0546 177.305C91.1073 177.26 91.1607 177.214 91.2134 177.169C95.2997 173.657 95.4598 168.037 91.6516 164.301C86.5792 159.327 83.5 152.813 83.5 145.69C83.5 133.467 92.5669 123.037 105.219 119.104C109.527 117.765 112.336 114.18 112.336 110.241C112.336 103.685 104.769 99.0707 97.6057 101.31C76.5226 107.899 61.4638 125.277 61.4638 145.691C61.4638 157.637 66.6207 168.543 75.1236 176.857C79.292 180.934 86.5894 181.143 91.0546 177.305Z" fill="#AF4FFB"/>
<path d="M78.3168 111.668C73.4752 115.673 69.4866 120.433 66.6081 125.731C63.2184 131.97 68.4712 139.13 76.4771 139.13H76.7211C80.9471 139.13 84.7936 137.031 86.5877 133.74C88.3015 130.596 90.6704 127.767 93.5417 125.382C97.6873 121.939 97.9954 116.329 94.2724 112.544C94.2238 112.495 94.1759 112.446 94.1273 112.397C90.0884 108.294 82.8215 107.942 78.3168 111.668Z" fill="#AF4FFB"/>
<path d="M96.9098 119.351C90.7519 119.351 85.7419 123.661 85.7419 128.958C85.7419 134.255 90.7519 138.564 96.9098 138.564C103.068 138.564 108.078 134.255 108.078 128.958C108.078 123.661 103.068 119.351 96.9098 119.351Z" fill="black"/>
<path d="M135.821 152.821C129.663 152.821 124.653 157.131 124.653 162.428C124.653 167.725 129.663 172.035 135.821 172.035C141.978 172.035 146.988 167.725 146.988 162.428C146.988 157.131 141.978 152.821 135.821 152.821Z" fill="black"/>
<path d="M94.0877 164.855C90.5799 161.838 90.5799 156.946 94.0877 153.929L128.259 124.535C131.767 121.518 137.454 121.518 140.961 124.535C144.469 127.552 144.469 132.444 140.961 135.461L106.79 164.855C103.282 167.873 97.5956 167.873 94.0877 164.855Z" fill="black"/>
<path d="M116.575 134.586L110.177 140.089C106.669 143.107 106.669 147.999 110.177 151.016C113.685 154.033 119.372 154.033 122.879 151.016L129.277 145.512C132.785 142.494 132.785 137.603 129.277 134.586C125.77 131.568 120.083 131.568 116.575 134.586Z" fill="black"/>
</g>
<defs>
<clipPath id="clip0">
<rect width="306.908" height="264" fill="white" transform="translate(0.585815)"/>
</clipPath>
</defs>
</svg>
