<svg width="119" height="92" viewBox="0 0 119 92" fill="none" xmlns="http://www.w3.org/2000/svg">
<ellipse cx="58.041" cy="46.5" rx="52.8284" ry="45.5" fill="white"/>
<path d="M78.7457 11H36.2116C34.25 11 32.6544 12.4096 32.6544 14.1424V15.3386H30.9074C28.946 15.3386 27.3503 16.7483 27.3503 18.481V58.6455C27.3503 59.1634 27.8255 59.583 28.4116 59.583C28.9977 59.583 29.4728 59.1634 29.4728 58.6455V18.481C29.4728 17.7821 30.1164 17.2136 30.9074 17.2136H73.4416C74.2326 17.2136 74.8761 17.7821 74.8761 18.481V71.8577C74.8761 72.5566 74.2326 73.1251 73.4416 73.1251H30.9074C30.1164 73.1251 29.4728 72.5566 29.4728 71.8577V63.0206C29.4728 62.5028 28.9977 62.0831 28.4116 62.0831C27.8255 62.0831 27.3503 62.5028 27.3503 63.0206V71.8577C27.3503 73.5904 28.946 75.0001 30.9074 75.0001H73.4416C75.403 75.0001 76.9987 73.5905 76.9987 71.8577V70.6615H78.7456C80.707 70.6615 82.3027 69.2519 82.3027 67.5191V26.0611C82.3027 25.5433 81.8275 25.1236 81.2414 25.1236C80.6553 25.1236 80.1802 25.5433 80.1802 26.0611V67.519C80.1802 68.2179 79.5366 68.7864 78.7456 68.7864H77.3912V18.481C77.3912 16.7484 75.7955 15.3386 73.8341 15.3386C73.2497 15.3386 35.046 15.3386 34.7769 15.3386V14.1424C34.777 13.4435 35.4204 12.875 36.2116 12.875H78.7457C79.5367 12.875 80.1803 13.4435 80.1803 14.1424V21.6862C80.1803 22.2041 80.6555 22.6237 81.2416 22.6237C81.8277 22.6237 82.3029 22.2041 82.3029 21.6862V14.1424C82.3029 12.4096 80.7071 11 78.7457 11V11Z" fill="black"/>
<path d="M93.0578 29.5995H87.3958C86.076 29.5995 85.0023 30.548 85.0023 31.7139V58.3268C85.0023 58.3449 85.0042 58.3625 85.0054 58.3804C85.0059 58.3901 85.0061 58.3999 85.0071 58.4097C85.0146 58.4846 85.0323 58.5569 85.0584 58.6258C85.0613 58.633 85.0645 58.6403 85.0675 58.6475C85.0794 58.6763 85.0928 58.7044 85.1077 58.7319C85.1101 58.7363 85.1116 58.741 85.1142 58.7454L88.5966 64.9087C88.9359 65.5093 89.5454 65.8679 90.227 65.8679C90.9086 65.8679 91.5181 65.5093 91.8573 64.9088L95.3397 58.7454C95.3428 58.74 95.3447 58.7343 95.3476 58.7289C95.3614 58.7035 95.3737 58.6775 95.3848 58.6509C95.3887 58.6418 95.3926 58.6329 95.396 58.6238C95.4082 58.5916 95.4188 58.5588 95.427 58.5251C95.4276 58.5228 95.4286 58.5205 95.4291 58.5181C95.4373 58.4834 95.4429 58.4478 95.4465 58.4116C95.4478 58.3994 95.448 58.3871 95.4487 58.3749C95.4497 58.3589 95.4514 58.343 95.4514 58.3268C95.4514 57.3543 95.4514 33.0421 95.4514 31.7139C95.4514 30.548 94.3776 29.5995 93.0578 29.5995ZM90.2269 63.5958L87.7796 59.2644H92.6743L90.2269 63.5958ZM93.3288 57.3893H87.125V37.3415H93.3288V57.3893ZM93.3288 35.4665H87.125V31.7139C87.125 31.5819 87.2465 31.4745 87.3959 31.4745H93.058C93.2074 31.4745 93.3289 31.5819 93.3289 31.7139V35.4665H93.3288Z" fill="black"/>
<path d="M33.4138 68.0322C33.4138 69.1006 34.3976 69.9697 35.6071 69.9697H41.4559C42.6653 69.9697 43.6492 69.1006 43.6492 68.0322V63.0952L46.0705 60.8198C46.4719 60.4425 46.4511 59.8492 46.0241 59.4945C45.597 59.1399 44.9254 59.1583 44.5238 59.5355L42.6861 61.2625C42.3351 61.0515 41.9115 60.928 41.4559 60.928H35.6071C34.3976 60.928 33.4138 61.7972 33.4138 62.8655V68.0322ZM41.5266 65.0898V68.0322C41.5266 68.0666 41.4949 68.0947 41.4559 68.0947H38.3107C38.3524 68.0658 38.3927 68.0348 38.4297 68.0002L41.5266 65.0898ZM35.5363 62.8655C35.5363 62.8312 35.568 62.803 35.6071 62.803H41.0469L37.8051 65.8496L35.9031 63.2892C35.8067 63.1594 35.6797 63.0583 35.5365 62.9872V62.8655H35.5363ZM35.5363 66.2133C36.8802 68.0223 36.8154 67.9658 37.001 68.0947H35.6071C35.568 68.0947 35.5363 68.0666 35.5363 68.0322V66.2133Z" fill="black"/>
<path d="M69.838 64.5114H47.2917C46.7056 64.5114 46.2304 64.931 46.2304 65.4489C46.2304 65.9667 46.7056 66.3864 47.2917 66.3864H69.838C70.4241 66.3864 70.8993 65.9667 70.8993 65.4489C70.8993 64.931 70.4241 64.5114 69.838 64.5114Z" fill="black"/>
<path d="M35.8901 41.3639H54.7044C56.0698 41.3639 57.1807 40.3825 57.1807 39.1764V22.5564C57.1807 21.3502 56.0698 20.3689 54.7044 20.3689H35.8901C34.5247 20.3689 33.4138 21.3502 33.4138 22.5564V39.1764C33.4138 40.3826 34.5247 41.3639 35.8901 41.3639ZM35.5363 22.5564C35.5363 22.384 35.6951 22.2439 35.8901 22.2439H54.7044C54.8994 22.2439 55.0581 22.384 55.0581 22.5564V39.1764C55.0581 39.3487 54.8994 39.4889 54.7044 39.4889H35.8901C35.6951 39.4889 35.5363 39.3487 35.5363 39.1764V22.5564Z" fill="black"/>
<path d="M41.1656 37.9862C41.7515 37.9862 42.2283 37.5662 42.2283 37.05V35.025C42.2312 33.5363 43.6008 32.3216 45.2843 32.3127C45.2887 32.3127 45.2929 32.313 45.2973 32.313C45.3018 32.313 45.3062 32.3127 45.3106 32.3127C46.9942 32.3215 48.364 33.5362 48.3668 35.025V36.1123H46.1183C45.5339 36.1123 45.057 36.5323 45.057 37.0498C45.057 37.5661 45.5339 37.9873 46.1183 37.9873C46.1197 37.9873 46.1211 37.9873 46.1211 37.9861H49.4281C49.7069 37.9861 49.9814 37.8861 50.1781 37.7125C50.3762 37.5375 50.4894 37.2962 50.4894 37.0498V35.025C50.4894 33.7986 49.9488 32.6473 48.9682 31.7812C48.7833 31.6178 48.5868 31.4683 48.3805 31.3333C49.4584 30.547 50.1465 29.358 50.1465 28.0296C50.1465 25.6676 47.9712 23.7458 45.2973 23.7458C42.6234 23.7458 40.4481 25.6675 40.4481 28.0296C40.4481 29.3578 41.1361 30.5468 42.2138 31.3332C42.0073 31.4683 41.8106 31.6178 41.6255 31.7813C40.6449 32.6476 40.1058 33.7988 40.1058 35.0251V37.05C40.1058 37.2963 40.219 37.5375 40.4157 37.7126C40.6138 37.8862 40.8869 37.9862 41.1656 37.9862ZM45.2973 25.6208C46.8008 25.6208 48.0239 26.7015 48.0239 28.0296C48.0239 29.355 46.8057 30.4332 45.3065 30.4377C45.3035 30.4377 45.3005 30.4376 45.2976 30.4376C45.2945 30.4376 45.2913 30.4377 45.2882 30.4378C43.789 30.4335 42.5706 29.3551 42.5706 28.0297C42.5706 26.7013 43.7938 25.6208 45.2973 25.6208Z" fill="black"/>
<path d="M60.458 26.8209H69.838C70.4241 26.8209 70.8993 26.4013 70.8993 25.8834C70.8993 25.3656 70.4241 24.9459 69.838 24.9459H60.458C59.8718 24.9459 59.3967 25.3656 59.3967 25.8834C59.3967 26.4013 59.8718 26.8209 60.458 26.8209Z" fill="black"/>
<path d="M60.458 32.136H69.838C70.4241 32.136 70.8993 31.7164 70.8993 31.1985C70.8993 30.6806 70.4241 30.261 69.838 30.261H60.458C59.8718 30.261 59.3967 30.6806 59.3967 31.1985C59.3967 31.7164 59.8718 32.136 60.458 32.136Z" fill="black"/>
<path d="M60.458 37.8051H69.838C70.4241 37.8051 70.8993 37.3855 70.8993 36.8676C70.8993 36.3497 70.4241 35.9301 69.838 35.9301H60.458C59.8718 35.9301 59.3967 36.3497 59.3967 36.8676C59.3967 37.3855 59.8718 37.8051 60.458 37.8051Z" fill="black"/>
<path d="M34.475 46.8581H69.838C70.4241 46.8581 70.8993 46.4385 70.8993 45.9206C70.8993 45.4027 70.4241 44.9831 69.838 44.9831H34.475C33.8889 44.9831 33.4138 45.4027 33.4138 45.9206C33.4138 46.4385 33.8889 46.8581 34.475 46.8581Z" fill="black"/>
<path d="M34.475 52.1732H69.838C70.4241 52.1732 70.8993 51.7535 70.8993 51.2357C70.8993 50.7178 70.4241 50.2982 69.838 50.2982H34.475C33.8889 50.2982 33.4138 50.7178 33.4138 51.2357C33.4138 51.7535 33.8889 52.1732 34.475 52.1732Z" fill="black"/>
<path d="M34.475 57.4881H69.838C70.4241 57.4881 70.8993 57.0685 70.8993 56.5506C70.8993 56.0327 70.4241 55.6131 69.838 55.6131H34.475C33.8889 55.6131 33.4138 56.0327 33.4138 56.5506C33.4138 57.0685 33.8889 57.4881 34.475 57.4881Z" fill="black"/>
</svg>
