<svg width="118" height="96" viewBox="0 0 118 96" fill="none" xmlns="http://www.w3.org/2000/svg">
<ellipse cx="57.3693" cy="48.5217" rx="52.3806" ry="47.4783" fill="white"/>
<g clip-path="url(#clip0)">
<path d="M86.2649 14H63.7521C62.1979 14 60.938 15.4335 60.938 17.2016C60.938 18.9698 62.1979 20.4032 63.7521 20.4032H79.4711L50.506 53.3568C49.4069 54.6072 49.4069 56.6341 50.506 57.8844C51.0553 58.5096 51.7755 58.8221 52.4957 58.8221C53.2159 58.8221 53.9362 58.5097 54.4856 57.8843L83.4509 24.9309V42.8143C83.4509 44.5825 84.7109 46.0159 86.265 46.0159C87.8192 46.0159 89.0792 44.5825 89.0792 42.8143V17.2016C89.079 15.4335 87.8191 14 86.2649 14Z" fill="black"/>
<path d="M75.0085 46.0157C73.4543 46.0157 72.1944 47.4492 72.1944 49.2174V78.0317H32.797V33.2094H58.1239C59.6781 33.2094 60.9381 31.7759 60.9381 30.0078C60.9381 28.2396 59.6781 26.8063 58.1239 26.8063H29.983C28.4288 26.8063 27.1689 28.2398 27.1689 30.0079V81.2333C27.1689 83.0013 28.4288 84.4348 29.983 84.4348H75.0086C76.5628 84.4348 77.8228 83.0013 77.8228 81.2331V49.2174C77.8226 47.4492 76.5627 46.0157 75.0085 46.0157Z" fill="black"/>
</g>
<defs>
<clipPath id="clip0">
<rect width="61.9102" height="70.4348" fill="white" transform="translate(27.1689 14)"/>
</clipPath>
</defs>
</svg>
