<svg width="99" height="91" viewBox="0 0 99 91" fill="none" xmlns="http://www.w3.org/2000/svg">
<g filter="url(#filter0_d)">
<path d="M76.9702 38.2613L33.0862 1.32596C32.0713 0.471004 30.7164 0 29.2716 0C27.8269 0 26.472 0.471004 25.457 1.32596L22.2253 4.04537C20.1224 5.81738 20.1224 8.69738 22.2253 10.4667L59.0758 41.4828L22.1844 72.5333C21.1694 73.3883 20.609 74.528 20.609 75.7433C20.609 76.9599 21.1694 78.0997 22.1844 78.9553L25.4161 81.674C26.4319 82.529 27.786 83 29.2308 83C30.6755 83 32.0304 82.529 33.0454 81.674L76.9702 44.7049C77.9876 43.8473 78.5464 42.7021 78.5432 41.4848C78.5464 40.2628 77.9876 39.1183 76.9702 38.2613Z" fill="black"/>
</g>
<defs>
<filter id="filter0_d" x="-3.73035" y="0" width="106.613" height="91" filterUnits="userSpaceOnUse" color-interpolation-filters="sRGB">
<feFlood flood-opacity="0" result="BackgroundImageFix"/>
<feColorMatrix in="SourceAlpha" type="matrix" values="0 0 0 0 0 0 0 0 0 0 0 0 0 0 0 0 0 0 127 0"/>
<feOffset dy="4"/>
<feGaussianBlur stdDeviation="2"/>
<feColorMatrix type="matrix" values="0 0 0 0 0 0 0 0 0 0 0 0 0 0 0 0 0 0 0.25 0"/>
<feBlend mode="normal" in2="BackgroundImageFix" result="effect1_dropShadow"/>
<feBlend mode="normal" in="SourceGraphic" in2="effect1_dropShadow" result="shape"/>
</filter>
</defs>
</svg>
