<svg width="113" height="112" viewBox="0 0 113 112" fill="none" xmlns="http://www.w3.org/2000/svg">
<g clip-path="url(#clip0)">
<ellipse cx="56.5893" cy="60" rx="56.3503" ry="52" fill="white"/>
<path d="M78.3495 44.0416C76.9365 44.0416 75.6197 44.4531 74.5264 45.1543C73.5844 42.5934 71.0299 40.75 68.0354 40.75C66.6224 40.75 65.3056 41.1615 64.2123 41.8626C63.2703 39.3018 60.7158 37.4584 57.7213 37.4584C56.4699 37.4584 55.2941 37.781 54.2833 38.3439V27.5834C54.2833 23.9526 51.1994 21 47.4072 21C43.615 21 40.5311 23.9526 40.5311 27.5834V66.0663L31.08 61.5403C29.6566 60.8587 28.0613 60.5 26.4696 60.5C22.8459 60.5 19.9029 63.321 19.9029 66.8069C19.9029 68.4889 20.587 70.0656 21.8282 71.2539L44.0585 92.5377C49.0815 97.3503 55.7686 100 62.8784 100C75.2003 100 85.2257 90.4015 85.2257 78.6041V50.625C85.2257 46.9942 82.1417 44.0416 78.3495 44.0416ZM81.7875 78.6041C81.7875 88.5877 73.3024 96.7082 62.8748 96.7082C56.683 96.7082 50.8658 94.4007 46.4926 90.2072L24.259 68.9234C23.6677 68.3605 23.341 67.6068 23.341 66.7871C23.341 65.1348 24.7437 63.7918 26.4696 63.7918C27.5319 63.7918 28.5909 64.032 29.5432 64.4863L41.4835 70.2006C42.0165 70.4542 42.6524 70.4278 43.1544 70.1283C43.6598 69.8288 43.9692 69.2988 43.9692 68.7293V27.5834C43.9692 25.7696 45.5094 24.2918 47.4072 24.2918C49.305 24.2918 50.8452 25.7698 50.8452 27.5834V58.8543C50.8452 59.7628 51.6154 60.5002 52.5643 60.5002C53.5132 60.5002 54.2833 59.7628 54.2833 58.8543V44.0418C54.2833 42.228 55.8235 40.7502 57.7213 40.7502C59.6191 40.7502 61.1593 42.2282 61.1593 44.0418V58.8543C61.1593 59.7628 61.9295 60.5002 62.8784 60.5002C63.8273 60.5002 64.5974 59.7628 64.5974 58.8543V47.3334C64.5974 45.5196 66.1376 44.0418 68.0354 44.0418C69.9332 44.0418 71.4734 45.5198 71.4734 47.3334V58.8543C71.4734 59.7628 72.2436 60.5002 73.1925 60.5002C74.1414 60.5002 74.9115 59.7628 74.9115 58.8543V50.625C74.9115 48.8112 76.4517 47.3334 78.3495 47.3334C80.2473 47.3334 81.7875 48.8114 81.7875 50.625V78.6041Z" fill="black"/>
</g>
<defs>
<clipPath id="clip0">
<rect width="112.701" height="112" fill="white" transform="translate(0.239044)"/>
</clipPath>
</defs>
</svg>
