<svg width="140" height="65" viewBox="0 0 140 65" fill="none" xmlns="http://www.w3.org/2000/svg">
<path d="M11 23C11 14.7157 17.7157 8 26 8H116C124.284 8 131 14.7157 131 23V33C131 41.2843 124.284 48 116 48H26C17.7157 48 11 41.2843 11 33V23Z" fill="black" fill-opacity="0.75"/>
<path d="M2 33C2 24.7157 8.71573 18 17 18H107C115.284 18 122 24.7157 122 33V58H2V33Z" fill="#AF4FFB"/>
<path d="M22.9814 50H22.3486V37.3438H22.9814V50ZM21.7158 50H21.083V37.3438H21.7158V50ZM20.4502 50H19.8174V37.3438H20.4502V50ZM24.2471 46.8359H30.3027V47.4688H24.2471V48.1016H30.3027V48.7344H24.2471V49.3672H30.3027V50H23.6143V37.3438H30.3027V37.9766H24.2471V38.6094H30.3027V39.2422H24.2471V39.875H30.3027V40.5078H24.2471V42.0811H29.9512V42.7139H24.2471V43.3467H29.9512V43.9795H24.2471V44.6123H29.9512V45.2451H24.2471V46.8359ZM31.7969 41.7734V41.1406H38.7578V41.7734H31.7969ZM31.7969 43.0391V42.4062H38.7578V43.0391H31.7969ZM31.7969 44.3047V43.6719H38.7578V44.3047H31.7969ZM46.167 43.9795H45.165C43.9346 43.9795 42.9883 43.7305 42.3262 43.2324C41.6641 42.7285 41.333 42.0371 41.333 41.1582C41.333 40.3379 41.7227 39.6553 42.502 39.1104C43.2812 38.5596 44.374 38.2842 45.7803 38.2842C46.7178 38.2842 47.5908 38.4131 48.3994 38.6709C49.2139 38.9287 49.8906 39.292 50.4297 39.7607L49.9375 40.1562C49.457 39.7637 48.8535 39.459 48.127 39.2422C47.4004 39.0254 46.6182 38.917 45.7803 38.917C44.5439 38.917 43.5977 39.1279 42.9414 39.5498C42.291 39.9717 41.9658 40.5078 41.9658 41.1582C41.9658 41.8613 42.2324 42.4033 42.7656 42.7842C43.3047 43.1592 44.1045 43.3467 45.165 43.3467H46.1318C47.3799 43.3467 48.335 43.5986 48.9971 44.1025C49.665 44.6006 49.999 45.2891 49.999 46.168C49.999 46.9883 49.6094 47.6738 48.8301 48.2246C48.0508 48.7695 46.958 49.042 45.5518 49.042C44.6143 49.042 43.7383 48.9131 42.9238 48.6553C42.1152 48.3975 41.4414 48.0342 40.9023 47.5654L41.3945 47.1699C41.875 47.5625 42.4785 47.8672 43.2051 48.084C43.9316 48.3008 44.7139 48.4092 45.5518 48.4092C46.7881 48.4092 47.7314 48.1982 48.3818 47.7764C49.0381 47.3545 49.3662 46.8184 49.3662 46.168C49.3662 45.4648 49.0967 44.9258 48.5576 44.5508C48.0244 44.1699 47.2275 43.9795 46.167 43.9795ZM46.167 45.2451H45.165C43.5361 45.2451 42.2793 44.876 41.3945 44.1377C40.5098 43.3936 40.0674 42.4004 40.0674 41.1582C40.0674 40.5898 40.1934 40.0566 40.4453 39.5586C40.6973 39.0605 41.0576 38.624 41.5264 38.249C42.001 37.8682 42.6045 37.5693 43.3369 37.3525C44.0693 37.1299 44.8838 37.0186 45.7803 37.0186C46.9111 37.0186 47.9688 37.1914 48.9531 37.5371C49.9375 37.877 50.7578 38.3545 51.4141 38.9697L50.9043 39.3477C50.3066 38.8086 49.5596 38.3926 48.6631 38.0996C47.7666 37.8008 46.8057 37.6514 45.7803 37.6514C44.1982 37.6514 42.9561 37.9854 42.0537 38.6533C41.1514 39.3213 40.7002 40.1562 40.7002 41.1582C40.7002 42.2188 41.0869 43.0596 41.8604 43.6807C42.6338 44.3018 43.7354 44.6123 45.165 44.6123H46.1318C47.8662 44.6123 48.7334 45.1309 48.7334 46.168C48.7334 46.6367 48.4668 47.0234 47.9336 47.3281C47.4062 47.627 46.6123 47.7764 45.5518 47.7764C44.8076 47.7764 44.1162 47.6914 43.4775 47.5215C42.8389 47.3457 42.3115 47.0967 41.8955 46.7744L42.3965 46.3877C43.1289 46.8916 44.1807 47.1436 45.5518 47.1436C46.4307 47.1436 47.0752 47.0527 47.4854 46.8711C47.8955 46.6895 48.1006 46.4551 48.1006 46.168C48.1006 45.834 47.957 45.5967 47.6699 45.4561C47.3828 45.3154 46.8818 45.2451 46.167 45.2451ZM46.167 42.7139H45.165C43.4541 42.7139 42.5986 42.1953 42.5986 41.1582C42.5986 40.6895 42.8623 40.3057 43.3896 40.0068C43.9229 39.7021 44.7197 39.5498 45.7803 39.5498C46.5244 39.5498 47.2158 39.6377 47.8545 39.8135C48.4932 39.9834 49.0205 40.2295 49.4365 40.5518L48.9355 40.9385C48.2031 40.4346 47.1514 40.1826 45.7803 40.1826C44.9014 40.1826 44.2568 40.2734 43.8467 40.4551C43.4365 40.6367 43.2314 40.8711 43.2314 41.1582C43.2314 41.4922 43.375 41.7295 43.6621 41.8701C43.9492 42.0107 44.4502 42.0811 45.165 42.0811H46.167C47.7959 42.0811 49.0527 42.4531 49.9375 43.1973C50.8223 43.9355 51.2646 44.9258 51.2646 46.168C51.2646 46.7363 51.1387 47.2695 50.8867 47.7676C50.6348 48.2656 50.2715 48.7051 49.7969 49.0859C49.3281 49.4609 48.7275 49.7598 47.9951 49.9824C47.2627 50.1992 46.4482 50.3076 45.5518 50.3076C44.4209 50.3076 43.3633 50.1377 42.3789 49.7979C41.3945 49.4521 40.5742 48.9717 39.918 48.3564L40.4277 47.9785C41.0254 48.5176 41.7725 48.9365 42.6689 49.2354C43.5654 49.5283 44.5264 49.6748 45.5518 49.6748C47.1338 49.6748 48.376 49.3408 49.2783 48.6729C50.1807 48.0049 50.6318 47.1699 50.6318 46.168C50.6318 45.1074 50.2451 44.2666 49.4717 43.6455C48.6982 43.0244 47.5967 42.7139 46.167 42.7139ZM65.9512 37.3438H65.248L61.7236 43.7246L65.1953 50H65.8984L62.4268 43.7246L65.9512 37.3438ZM64.5361 37.3438H63.833L60.3086 43.7246L63.7803 50H64.4834L61.0117 43.7246L64.5361 37.3438ZM63.1211 37.3438H62.418L58.8936 43.7246L62.3652 50H63.0684L59.5967 43.7246L63.1211 37.3438ZM61.7061 37.3438H61.0029L57.4697 43.7246L60.9502 50H61.6533L58.1729 43.7246L61.7061 37.3438ZM56.4502 37.3438H57.083V50H56.4502V37.3438ZM55.1846 37.3438H55.8174V50H55.1846V37.3438ZM53.9189 37.3438H54.5518V50H53.9189V37.3438ZM52.6533 37.3438H53.2861V50H52.6533V37.3438ZM70.8818 37.3438H71.5146V50H70.8818V37.3438ZM69.6162 37.3438H70.249V50H69.6162V37.3438ZM68.3506 37.3438H68.9834V50H68.3506V37.3438ZM67.085 37.3438H67.7178V50H67.085V37.3438ZM76.9639 46.2031V41.1406C76.9639 41.1406 78.1328 41.1406 80.4707 41.1406C81.1211 41.1406 81.6777 41.3867 82.1406 41.8789C82.6094 42.3711 82.8438 42.9629 82.8438 43.6543C82.8438 44.3691 82.6123 44.9727 82.1494 45.4648C81.6865 45.957 81.127 46.2031 80.4707 46.2031H76.9639ZM77.5967 45.5703H80.4707C80.9453 45.5703 81.3496 45.3857 81.6836 45.0166C82.0234 44.6475 82.1934 44.1934 82.1934 43.6543C82.1934 43.1387 82.0234 42.6963 81.6836 42.3271C81.3496 41.958 80.9453 41.7734 80.4707 41.7734H77.5967V45.5703ZM76.3311 46.8359H80.4707C81.3027 46.8359 82.0146 46.5283 82.6064 45.9131C83.1982 45.292 83.4941 44.5391 83.4941 43.6543C83.4941 42.7871 83.1953 42.0459 82.5977 41.4307C82.0059 40.8154 81.2969 40.5078 80.4707 40.5078H76.3311V46.8359ZM75.6982 47.4688V39.875H80.4707C81.4727 39.875 82.334 40.2471 83.0547 40.9912C83.7812 41.7295 84.1445 42.6172 84.1445 43.6543C84.1445 44.7148 83.7842 45.6172 83.0635 46.3613C82.3428 47.0996 81.4785 47.4688 80.4707 47.4688H75.6982ZM75.0654 48.1016H80.4707C81.2441 48.1016 81.9619 47.9053 82.624 47.5127C83.2861 47.1201 83.8135 46.5811 84.2061 45.8955C84.5986 45.21 84.7949 44.4629 84.7949 43.6543C84.7949 42.8633 84.5986 42.1279 84.2061 41.4482C83.8135 40.7686 83.2832 40.2324 82.6152 39.8398C81.9531 39.4414 81.2383 39.2422 80.4707 39.2422H75.0654V48.1016ZM74.4326 48.7344V38.6094H80.4707C81.3555 38.6094 82.1787 38.835 82.9404 39.2861C83.708 39.7373 84.3174 40.3525 84.7686 41.1318C85.2197 41.9053 85.4453 42.7461 85.4453 43.6543C85.4453 44.5742 85.2197 45.4268 84.7686 46.2119C84.3174 46.9912 83.708 47.6064 82.9404 48.0576C82.1787 48.5088 81.3555 48.7344 80.4707 48.7344H74.4326ZM73.7998 49.3672H80.4707C81.4727 49.3672 82.4043 49.1152 83.2656 48.6113C84.127 48.1016 84.8125 47.4072 85.3223 46.5283C85.8379 45.6494 86.0957 44.6914 86.0957 43.6543C86.0957 42.6348 85.8379 41.6885 85.3223 40.8154C84.8125 39.9365 84.124 39.2451 83.2568 38.7412C82.3955 38.2314 81.4668 37.9766 80.4707 37.9766H73.7998V49.3672ZM80.4707 50H73.167V37.3438H80.4707C81.584 37.3438 82.6211 37.6279 83.582 38.1963C84.5488 38.7588 85.3164 39.5264 85.8848 40.499C86.459 41.4658 86.7461 42.5176 86.7461 43.6543C86.7461 44.5156 86.5762 45.3389 86.2363 46.124C85.9023 46.9092 85.4512 47.5859 84.8828 48.1543C84.3203 48.7168 83.6523 49.165 82.8789 49.499C82.1055 49.833 81.3027 50 80.4707 50ZM101.459 37.3438H100.756L97.2314 43.7246L100.703 50H101.406L97.9346 43.7246L101.459 37.3438ZM100.044 37.3438H99.3408L95.8164 43.7246L99.2881 50H99.9912L96.5195 43.7246L100.044 37.3438ZM98.6289 37.3438H97.9258L94.4014 43.7246L97.873 50H98.5762L95.1045 43.7246L98.6289 37.3438ZM97.2139 37.3438H96.5107L92.9775 43.7246L96.458 50H97.1611L93.6807 43.7246L97.2139 37.3438ZM91.958 37.3438H92.5908V50H91.958V37.3438ZM90.6924 37.3438H91.3252V50H90.6924V37.3438ZM89.4268 37.3438H90.0596V50H89.4268V37.3438ZM88.1611 37.3438H88.7939V50H88.1611V37.3438ZM111.575 43.7598C111.575 43.0098 111.344 42.4297 110.881 42.0195C110.418 41.6094 109.806 41.4043 109.044 41.4043C108.399 41.4043 107.846 41.627 107.383 42.0723C106.92 42.5176 106.688 43.0508 106.688 43.6719C106.688 44.0234 106.735 44.3398 106.829 44.6211C106.923 44.8965 107.049 45.1279 107.207 45.3154C107.371 45.4971 107.564 45.6494 107.787 45.7725C108.01 45.8896 108.241 45.9746 108.481 46.0273C108.728 46.0801 108.988 46.1064 109.264 46.1064C109.932 46.1064 110.541 45.9424 111.092 45.6143V46.2471C110.523 46.5459 109.911 46.6953 109.255 46.6953C108.833 46.6953 108.435 46.6396 108.06 46.5283C107.69 46.4111 107.354 46.2383 107.049 46.0098C106.744 45.7754 106.501 45.459 106.319 45.0605C106.144 44.6562 106.056 44.1934 106.056 43.6719C106.056 42.8633 106.34 42.1777 106.908 41.6152C107.477 41.0527 108.188 40.7715 109.044 40.7715C109.987 40.7715 110.749 41.0381 111.329 41.5713C111.915 42.0986 112.208 42.8281 112.208 43.7598V50H111.575V43.7598ZM113.474 43.7598V50H112.841V43.7598C112.841 42.6523 112.486 41.7734 111.777 41.123C111.068 40.4668 110.157 40.1387 109.044 40.1387C108.013 40.1387 107.151 40.4814 106.46 41.167C105.769 41.8525 105.423 42.6875 105.423 43.6719C105.423 44.2695 105.525 44.8057 105.73 45.2803C105.941 45.7549 106.226 46.1357 106.583 46.4229C106.94 46.71 107.339 46.9297 107.778 47.082C108.224 47.2285 108.692 47.3018 109.185 47.3018C109.853 47.3018 110.488 47.1465 111.092 46.8359V47.5039C110.459 47.7676 109.82 47.8994 109.176 47.8994C108.596 47.8994 108.045 47.8115 107.523 47.6357C107.002 47.4541 106.536 47.1934 106.126 46.8535C105.716 46.5078 105.391 46.0625 105.15 45.5176C104.91 44.9668 104.79 44.3516 104.79 43.6719C104.79 42.5176 105.197 41.5361 106.012 40.7275C106.832 39.9131 107.843 39.5059 109.044 39.5059C109.888 39.5059 110.644 39.6787 111.312 40.0244C111.979 40.3643 112.507 40.8594 112.894 41.5098C113.28 42.1602 113.474 42.9102 113.474 43.7598ZM114.739 43.7598V50H114.106V43.7598C114.106 42.793 113.884 41.9375 113.438 41.1934C112.999 40.4434 112.396 39.8691 111.628 39.4707C110.86 39.0723 109.999 38.873 109.044 38.873C108.136 38.873 107.307 39.0898 106.557 39.5234C105.807 39.9512 105.218 40.5312 104.79 41.2637C104.368 41.9961 104.157 42.7988 104.157 43.6719C104.157 44.4219 104.295 45.1074 104.57 45.7285C104.846 46.3438 105.215 46.8506 105.678 47.249C106.146 47.6475 106.677 47.958 107.269 48.1807C107.866 48.3975 108.49 48.5059 109.141 48.5059C109.803 48.5059 110.453 48.3682 111.092 48.0928V48.7344C110.424 48.9863 109.768 49.1123 109.123 49.1123C108.109 49.1123 107.178 48.8838 106.328 48.4268C105.479 47.9697 104.799 47.3223 104.289 46.4844C103.779 45.6465 103.524 44.709 103.524 43.6719C103.524 42.9336 103.665 42.2305 103.946 41.5625C104.233 40.8945 104.62 40.3174 105.106 39.8311C105.593 39.3447 106.179 38.958 106.864 38.6709C107.55 38.3838 108.276 38.2402 109.044 38.2402C110.116 38.2402 111.083 38.4688 111.944 38.9258C112.812 39.3828 113.494 40.0332 113.992 40.877C114.49 41.7207 114.739 42.6816 114.739 43.7598ZM116.005 43.7598V50H115.372V43.7598C115.372 42.5645 115.094 41.498 114.537 40.5605C113.98 39.6172 113.222 38.8906 112.261 38.3809C111.3 37.8652 110.228 37.6074 109.044 37.6074C107.907 37.6074 106.867 37.8799 105.924 38.4248C104.98 38.9697 104.239 39.708 103.7 40.6396C103.161 41.5654 102.892 42.5762 102.892 43.6719C102.892 44.3926 103.006 45.0781 103.234 45.7285C103.469 46.373 103.785 46.9385 104.184 47.4248C104.588 47.9053 105.051 48.3213 105.572 48.6729C106.1 49.0244 106.665 49.291 107.269 49.4727C107.878 49.6543 108.496 49.7451 109.123 49.7451C109.814 49.7451 110.471 49.6133 111.092 49.3496V50C110.441 50.2285 109.773 50.3428 109.088 50.3428C108.379 50.3428 107.688 50.2432 107.014 50.0439C106.346 49.8447 105.725 49.5518 105.15 49.165C104.582 48.7725 104.081 48.3125 103.647 47.7852C103.214 47.252 102.874 46.6309 102.628 45.9219C102.382 45.2129 102.259 44.4629 102.259 43.6719C102.259 42.7637 102.429 41.8994 102.769 41.0791C103.114 40.2529 103.583 39.541 104.175 38.9434C104.772 38.3398 105.493 37.8623 106.337 37.5107C107.187 37.1533 108.089 36.9746 109.044 36.9746C110.017 36.9746 110.931 37.1387 111.786 37.4668C112.642 37.7949 113.38 38.252 114.001 38.8379C114.622 39.418 115.111 40.1328 115.469 40.9824C115.826 41.832 116.005 42.7578 116.005 43.7598Z" fill="white"/>
<path d="M19 27.6501H18.3V28.4168H19V27.6501Z" fill="white"/>
<path d="M19 29.1833H18.3V29.95H19V29.1833Z" fill="white"/>
<path d="M19 30.7166H18.3V31.4832H19V30.7166Z" fill="white"/>
<path d="M19 26.1167H18.3V26.8834H19V26.1167Z" fill="white"/>
<path d="M19 24.5835H18.3V25.3502H19V24.5835Z" fill="white"/>
<path d="M19 23.05H18.3V23.8167H19V23.05Z" fill="white"/>
<path d="M19 21.5166H18.3V22.2833H19V21.5166Z" fill="white"/>
<path d="M14.1 21.5166H13.4V22.2833H14.1V21.5166Z" fill="white"/>
<path d="M31.6 21.5166H30.9V22.2833H31.6V21.5166Z" fill="white"/>
<path d="M31.6 30.7166H30.9V31.4832H31.6V30.7166Z" fill="white"/>
<path d="M14.1 30.7166H13.4V31.4832H14.1V30.7166Z" fill="white"/>
<path d="M32.65 24.5834C32.8433 24.5834 33 24.4118 33 24.2001V20.3667C33 20.155 32.8433 19.9834 32.65 19.9834H12.35C12.1567 19.9834 12 20.155 12 20.3667V24.2001C12 24.4118 12.1567 24.5834 12.35 24.5834C13.3165 24.5834 14.1 25.4415 14.1 26.5001C14.1 27.5586 13.3165 28.4167 12.35 28.4167C12.1567 28.4167 12 28.5884 12 28.8001V32.6334C12 32.8451 12.1567 33.0167 12.35 33.0167H32.65C32.8433 33.0167 33 32.8451 33 32.6334V28.8001C33 28.5884 32.8433 28.4167 32.65 28.4167C31.6835 28.4167 30.9 27.5586 30.9 26.5001C30.9 25.4415 31.6835 24.5834 32.65 24.5834ZM30.2229 26.8813C30.3774 28.0605 31.2234 28.9869 32.3 29.1562V32.2501H12.7V29.1562C14.0394 28.9456 14.9693 27.5858 14.7771 26.1188C14.6225 24.9397 13.7767 24.0132 12.7 23.8439V20.7501H32.3V23.8439C30.9606 24.0545 30.0307 25.4143 30.2229 26.8813Z" fill="white"/>
<path d="M22.5 22.6665C21.7268 22.6665 21.1 23.353 21.1 24.1998C21.1 25.0467 21.7268 25.7332 22.5 25.7332C23.2732 25.7332 23.9 25.0467 23.9 24.1998C23.9 23.353 23.2732 22.6665 22.5 22.6665ZM22.5 24.9665C22.1134 24.9665 21.8 24.6233 21.8 24.1998C21.8 23.7764 22.1134 23.4332 22.5 23.4332C22.8866 23.4332 23.2 23.7764 23.2 24.1998C23.2 24.6233 22.8866 24.9665 22.5 24.9665Z" fill="white"/>
<path d="M26.7 27.2666C25.9268 27.2666 25.3 27.9531 25.3 28.7999C25.3 29.6468 25.9268 30.3333 26.7 30.3333C27.4732 30.3333 28.1 29.6468 28.1 28.7999C28.1 27.9531 27.4732 27.2666 26.7 27.2666ZM26.7 29.5666C26.3134 29.5666 26 29.2234 26 28.7999C26 28.3765 26.3134 28.0333 26.7 28.0333C27.0866 28.0333 27.4 28.3765 27.4 28.7999C27.4 29.2234 27.0866 29.5666 26.7 29.5666Z" fill="white"/>
<path d="M27.1524 23.1617L21.5526 29.2949L22.0475 29.837L27.6474 23.7038L27.1524 23.1617Z" fill="white"/>
</svg>
