<svg width="28" height="25" viewBox="0 0 28 25" fill="none" xmlns="http://www.w3.org/2000/svg">
<g clip-path="url(#clip0)">
<path d="M14 0.00164795C6.2804 0.00164795 0 5.60892 0 12.501C0 19.3932 6.2804 25.0004 14 25.0004C21.7196 25.0004 28 19.3932 28 12.501C28 5.60892 21.7196 0.00164795 14 0.00164795ZM14 22.7277C7.68396 22.7277 2.54545 18.1401 2.54545 12.501C2.54545 6.86203 7.68396 2.27438 14 2.27438C20.316 2.27438 25.4545 6.86203 25.4545 12.501C25.4545 18.1401 20.316 22.7277 14 22.7277Z" fill="#AF4FFB"/>
<path d="M14 9.84906C13.2971 9.84906 12.7273 10.3578 12.7273 10.9854V18.5599C12.7273 19.1875 13.2971 19.6963 14 19.6963C14.7029 19.6963 15.2727 19.1875 15.2727 18.5599V10.9854C15.2727 10.3579 14.7029 9.84906 14 9.84906Z" fill="#AF4FFB"/>
<path d="M14 5.30386C13.6648 5.30386 13.3372 5.42508 13.0997 5.63644C12.863 5.8478 12.7273 6.14098 12.7273 6.44023C12.7273 6.73947 12.863 7.03189 13.0997 7.24401C13.3365 7.45538 13.6648 7.57659 14 7.57659C14.3351 7.57659 14.6627 7.45538 14.9001 7.24401C15.1369 7.03189 15.2727 6.73947 15.2727 6.44023C15.2727 6.14098 15.1369 5.8478 14.9001 5.63644C14.6627 5.425 14.3351 5.30386 14 5.30386Z" fill="#AF4FFB"/>
</g>
<defs>
<clipPath id="clip0">
<rect width="28" height="25" fill="white"/>
</clipPath>
</defs>
</svg>
