<svg width="19" height="24" viewBox="0 0 19 24" fill="none" xmlns="http://www.w3.org/2000/svg">
<g clip-path="url(#clip0)">
<path d="M16.5732 5.83087L12.1202 0.206016C12.0146 0.0725625 11.8703 0 11.7266 0H3.93359C3.0128 0 2.26367 0.946266 2.26367 2.10938V21.8906C2.26367 23.0537 3.0128 24 3.93359 24H15.0664C15.9872 24 16.7363 23.0537 16.7363 21.8906V6.32812C16.7363 6.13519 16.6716 5.95514 16.5732 5.83087ZM12.2832 2.40061L14.8358 5.625H12.8398C12.5329 5.625 12.2832 5.30958 12.2832 4.92188V2.40061ZM15.0664 22.5938H3.93359C3.62666 22.5938 3.37695 22.2783 3.37695 21.8906V2.10938C3.37695 1.72167 3.62666 1.40625 3.93359 1.40625H11.1699V4.92188C11.1699 6.08498 11.919 7.03125 12.8398 7.03125H15.623V21.8906C15.623 22.2783 15.3733 22.5938 15.0664 22.5938Z" fill="#AF4FFB"/>
<path d="M12.8398 11.3438H7.27344C6.96602 11.3438 6.7168 11.6586 6.7168 12.0469C6.7168 12.4352 6.96602 12.75 7.27344 12.75H12.8398C13.1473 12.75 13.3965 12.4352 13.3965 12.0469C13.3965 11.6586 13.1473 11.3438 12.8398 11.3438Z" fill="#AF4FFB"/>
<path d="M12.8398 14.1562H7.27344C6.96602 14.1562 6.7168 14.4711 6.7168 14.8594C6.7168 15.2477 6.96602 15.5625 7.27344 15.5625H12.8398C13.1473 15.5625 13.3965 15.2477 13.3965 14.8594C13.3965 14.4711 13.1473 14.1562 12.8398 14.1562Z" fill="#AF4FFB"/>
<path d="M12.8398 16.9688H7.27344C6.96602 16.9688 6.7168 17.2836 6.7168 17.6719C6.7168 18.0602 6.96602 18.375 7.27344 18.375H12.8398C13.1473 18.375 13.3965 18.0602 13.3965 17.6719C13.3965 17.2836 13.1473 16.9688 12.8398 16.9688Z" fill="#AF4FFB"/>
<path d="M5.04688 12.75C5.3543 12.75 5.60352 12.4352 5.60352 12.0469C5.60352 11.6585 5.3543 11.3438 5.04688 11.3438C4.73945 11.3438 4.49023 11.6585 4.49023 12.0469C4.49023 12.4352 4.73945 12.75 5.04688 12.75Z" fill="#AF4FFB"/>
<path d="M5.04688 15.5625C5.3543 15.5625 5.60352 15.2477 5.60352 14.8594C5.60352 14.471 5.3543 14.1562 5.04688 14.1562C4.73945 14.1562 4.49023 14.471 4.49023 14.8594C4.49023 15.2477 4.73945 15.5625 5.04688 15.5625Z" fill="#AF4FFB"/>
<path d="M5.04688 18.375C5.3543 18.375 5.60352 18.0602 5.60352 17.6719C5.60352 17.2835 5.3543 16.9688 5.04688 16.9688C4.73945 16.9688 4.49023 17.2835 4.49023 17.6719C4.49023 18.0602 4.73945 18.375 5.04688 18.375Z" fill="#AF4FFB"/>
</g>
<defs>
<clipPath id="clip0">
<rect width="19" height="24" fill="white"/>
</clipPath>
</defs>
</svg>
