<svg width="74" height="75" viewBox="0 0 74 75" fill="none" xmlns="http://www.w3.org/2000/svg">
<g clip-path="url(#clip0)">
<path d="M64.5482 18.2215L47.2051 0.643799C46.7937 0.226758 46.2316 0 45.6719 0H15.3203C11.7341 0 8.81641 2.95708 8.81641 6.5918V68.4082C8.81641 72.0429 11.7341 75 15.3203 75H58.6797C62.2659 75 65.1836 72.0429 65.1836 68.4082V19.7754C65.1836 19.1725 64.9317 18.6098 64.5482 18.2215ZM47.8398 7.5019L57.7817 17.5781H50.0078C48.8124 17.5781 47.8398 16.5924 47.8398 15.3809V7.5019ZM58.6797 70.6055H15.3203C14.1249 70.6055 13.1523 69.6198 13.1523 68.4082V6.5918C13.1523 5.38022 14.1249 4.39453 15.3203 4.39453H43.5039V15.3809C43.5039 19.0156 46.4216 21.9727 50.0078 21.9727H60.8477V68.4082C60.8477 69.6198 59.8751 70.6055 58.6797 70.6055Z" fill="#AF4FFB"/>
<path d="M50.0078 35.4492H28.3281C27.1308 35.4492 26.1602 36.433 26.1602 37.6465C26.1602 38.86 27.1308 39.8438 28.3281 39.8438H50.0078C51.2051 39.8438 52.1758 38.86 52.1758 37.6465C52.1758 36.433 51.2051 35.4492 50.0078 35.4492Z" fill="#AF4FFB"/>
<path d="M50.0078 44.2383H28.3281C27.1308 44.2383 26.1602 45.2221 26.1602 46.4355C26.1602 47.649 27.1308 48.6328 28.3281 48.6328H50.0078C51.2051 48.6328 52.1758 47.649 52.1758 46.4355C52.1758 45.2221 51.2051 44.2383 50.0078 44.2383Z" fill="#AF4FFB"/>
<path d="M50.0078 53.0273H28.3281C27.1308 53.0273 26.1602 54.0111 26.1602 55.2246C26.1602 56.4381 27.1308 57.4219 28.3281 57.4219H50.0078C51.2051 57.4219 52.1758 56.4381 52.1758 55.2246C52.1758 54.0111 51.2051 53.0273 50.0078 53.0273Z" fill="#AF4FFB"/>
<path d="M19.6562 39.8438C20.8536 39.8438 21.8242 38.86 21.8242 37.6465C21.8242 36.433 20.8536 35.4492 19.6562 35.4492C18.4589 35.4492 17.4883 36.433 17.4883 37.6465C17.4883 38.86 18.4589 39.8438 19.6562 39.8438Z" fill="#AF4FFB"/>
<path d="M19.6562 48.6328C20.8536 48.6328 21.8242 47.6491 21.8242 46.4355C21.8242 45.222 20.8536 44.2383 19.6562 44.2383C18.4589 44.2383 17.4883 45.222 17.4883 46.4355C17.4883 47.6491 18.4589 48.6328 19.6562 48.6328Z" fill="#AF4FFB"/>
<path d="M19.6562 57.4219C20.8536 57.4219 21.8242 56.4381 21.8242 55.2246C21.8242 54.0111 20.8536 53.0273 19.6562 53.0273C18.4589 53.0273 17.4883 54.0111 17.4883 55.2246C17.4883 56.4381 18.4589 57.4219 19.6562 57.4219Z" fill="#AF4FFB"/>
</g>
<defs>
<clipPath id="clip0">
<rect width="74" height="75" fill="white"/>
</clipPath>
</defs>
</svg>
