<svg width="44" height="43" viewBox="0 0 44 43" fill="none" xmlns="http://www.w3.org/2000/svg">
<g clip-path="url(#clip0)">
<path d="M21.6865 20.7132C24.5983 20.7132 27.1197 19.6926 29.1798 17.679C31.24 15.6656 32.2843 13.2022 32.2843 10.3563C32.2843 7.51132 31.24 5.04757 29.1795 3.0336C27.119 1.0206 24.5979 0 21.6865 0C18.7743 0 16.2536 1.0206 14.1935 3.03392C12.1333 5.04724 11.0886 7.51099 11.0886 10.3563C11.0886 13.2022 12.1333 15.666 14.1938 17.6793C16.2543 19.6923 18.7753 20.7132 21.6865 20.7132Z" fill="#AF4FFB"/>
<path d="M40.2298 33.0649C40.1704 32.227 40.0502 31.313 39.8733 30.3479C39.6947 29.3755 39.4648 28.4563 39.1895 27.6161C38.9052 26.7477 38.5185 25.8902 38.0404 25.0684C37.5443 24.2154 36.9615 23.4727 36.3076 22.8615C35.6238 22.2221 34.7866 21.708 33.8184 21.3331C32.8536 20.96 31.7845 20.7711 30.6407 20.7711C30.1916 20.7711 29.7572 20.9512 28.9183 21.4849C28.402 21.814 27.7981 22.1945 27.124 22.6154C26.5476 22.9743 25.7668 23.3106 24.8024 23.6151C23.8614 23.9126 22.906 24.0635 21.9631 24.0635C21.0201 24.0635 20.0651 23.9126 19.1231 23.6151C18.1597 23.3109 17.3788 22.9747 16.8031 22.6158C16.1354 22.1988 15.5312 21.8183 15.0072 21.4846C14.1693 20.9509 13.7346 20.7708 13.2854 20.7708C12.1414 20.7708 11.0725 20.96 10.1081 21.3334C9.14059 21.7077 8.30304 22.2218 7.61856 22.8618C6.96497 23.4733 6.38187 24.2157 5.88638 25.0684C5.40869 25.8902 5.02197 26.7474 4.7373 27.6164C4.46237 28.4566 4.23242 29.3755 4.05383 30.3479C3.87692 31.3117 3.75674 32.226 3.69733 33.0659C3.63892 33.8887 3.60938 34.7426 3.60938 35.6051C3.60938 37.8497 4.33951 39.6668 5.7793 41.007C7.20129 42.3294 9.08286 43.0003 11.3709 43.0003H32.5572C34.8453 43.0003 36.7262 42.3297 38.1485 41.007C39.5887 39.6678 40.3188 37.8504 40.3188 35.6048C40.3185 34.7383 40.2886 33.8837 40.2298 33.0649Z" fill="#AF4FFB"/>
</g>
<defs>
<clipPath id="clip0">
<rect width="44" height="43" fill="white"/>
</clipPath>
</defs>
</svg>
