<svg width="32" height="31" viewBox="0 0 32 31" fill="none" xmlns="http://www.w3.org/2000/svg">
<g clip-path="url(#clip0)">
<path d="M30.5454 0H18.9091C18.1057 0 17.4545 0.630898 17.4545 1.40911C17.4545 2.18732 18.1057 2.81821 18.9091 2.81821H27.0339L12.0624 17.3219C11.4944 17.8722 11.4944 18.7643 12.0624 19.3146C12.3464 19.5897 12.7186 19.7273 13.0909 19.7273C13.4631 19.7273 13.8354 19.5898 14.1194 19.3145L29.0909 4.81093V12.6818C29.0909 13.4601 29.7422 14.091 30.5455 14.091C31.3488 14.091 32.0001 13.4601 32.0001 12.6818V1.40911C32 0.630898 31.3487 0 30.5454 0Z" fill="#AF4FFB"/>
<path d="M24.7272 14.0909C23.9239 14.0909 23.2727 14.7218 23.2727 15.5V28.1818H2.90906V8.45451H16C16.8033 8.45451 17.4546 7.82361 17.4546 7.0454C17.4546 6.26719 16.8033 5.63635 16 5.63635H1.45456C0.65125 5.63635 0 6.26725 0 7.04546V29.5909C0 30.3691 0.65125 31 1.45456 31H24.7273C25.5306 31 26.1819 30.3691 26.1819 29.5909V15.5C26.1818 14.7218 25.5306 14.0909 24.7272 14.0909Z" fill="#AF4FFB"/>
</g>
<defs>
<clipPath id="clip0">
<rect width="32" height="31" fill="white"/>
</clipPath>
</defs>
</svg>
