<svg width="42" height="43" viewBox="0 0 42 43" fill="none" xmlns="http://www.w3.org/2000/svg">
<g clip-path="url(#clip0)">
<path d="M41.4868 39.9421L29.5432 27.7141C31.8567 24.7884 33.2496 21.0707 33.2496 17.0216C33.2496 7.63689 25.7912 0.000854492 16.6248 0.000854492C7.45837 0.000854492 0 7.63681 0 17.0215C0 26.4061 7.45845 34.0422 16.6249 34.0422C20.5798 34.0422 24.211 32.616 27.0687 30.2475L39.0124 42.4755C39.3536 42.8248 39.8016 43.0004 40.2496 43.0004C40.6977 43.0004 41.1457 42.8248 41.4869 42.4755C42.1711 41.775 42.1711 40.6426 41.4868 39.9421ZM16.6249 30.4588C9.38691 30.4588 3.49999 24.4318 3.49999 17.0215C3.49999 9.61118 9.38691 3.5841 16.6249 3.5841C23.8628 3.5841 29.7497 9.61118 29.7497 17.0215C29.7497 24.4318 23.8627 30.4588 16.6249 30.4588Z" fill="#AF4FFB"/>
</g>
<defs>
<clipPath id="clip0">
<rect width="42" height="43" fill="white"/>
</clipPath>
</defs>
</svg>
