<svg width="45" height="43" viewBox="0 0 45 43" fill="none" xmlns="http://www.w3.org/2000/svg">
<path d="M19.2189 20.1562H1.40625C0.629997 20.1562 0 19.5543 0 18.8125C0 18.0707 0.629997 17.4688 1.40625 17.4688H19.2189C19.9951 17.4688 20.6251 18.0707 20.6251 18.8125C20.6251 19.5543 19.9951 20.1562 19.2189 20.1562Z" fill="#AF4FFB"/>
<path d="M12.1876 26.875C11.8275 26.875 11.4677 26.7441 11.1937 26.481C10.6444 25.9558 10.6444 25.1048 11.1937 24.5799L17.2314 18.8109L11.1937 13.0435C10.6444 12.5183 10.6444 11.6673 11.1937 11.1424C11.743 10.6175 12.6336 10.6175 13.1833 11.1424L20.2145 17.8611C20.7638 18.386 20.7638 19.237 20.2145 19.7623L13.1833 26.481C12.9076 26.7441 12.5474 26.875 12.1876 26.875Z" fill="#AF4FFB"/>
<path d="M29.9999 42.9999C27.9317 42.9999 26.2501 41.3927 26.2501 39.4165V7.16649C26.2501 5.63476 27.2701 4.26772 28.7887 3.76414L40.0538 0.175451C42.5737 -0.562693 45 1.22362 45 3.58338V35.8334C45 37.3635 43.98 38.7285 42.4632 39.2338L31.1943 42.8244C30.7837 42.9461 30.4033 42.9999 29.9999 42.9999ZM41.2499 2.68744C41.128 2.68744 41.025 2.70187 40.9145 2.73402L29.6964 6.30828C29.3287 6.43032 29.0626 6.78496 29.0626 7.16649V39.4165C29.0626 40.0277 29.7561 40.4397 30.3357 40.2659L41.5537 36.6916C41.9194 36.5696 42.1875 36.2149 42.1875 35.8334V3.58338C42.1875 3.09063 41.7676 2.68744 41.2499 2.68744Z" fill="#AF4FFB"/>
<path d="M16.4064 8.95844C15.6301 8.95844 15.0001 8.35645 15.0001 7.61469V4.92719C15.0001 2.20918 17.3117 0 20.1561 0H41.2499C42.0261 0 42.6561 0.601997 42.6561 1.34375C42.6561 2.0855 42.0261 2.6875 41.2499 2.6875H20.1561C18.8642 2.6875 17.8126 3.69269 17.8126 4.92719V7.61469C17.8126 8.35645 17.1826 8.95844 16.4064 8.95844Z" fill="#AF4FFB"/>
<path d="M27.6564 37.625H20.1561C17.3117 37.625 15.0001 35.4158 15.0001 32.6978V30.0103C15.0001 29.2686 15.6301 28.6666 16.4064 28.6666C17.1826 28.6666 17.8126 29.2686 17.8126 30.0103V32.6978C17.8126 33.9323 18.8642 34.9375 20.1561 34.9375H27.6564C28.4326 34.9375 29.0626 35.5395 29.0626 36.2813C29.0626 37.023 28.4326 37.625 27.6564 37.625Z" fill="#AF4FFB"/>
</svg>
