<svg width="17" height="22" viewBox="0 0 17 22" fill="none" xmlns="http://www.w3.org/2000/svg">
<path d="M14.5208 0H2.47918C2.28341 0 2.125 0.205004 2.125 0.458348V20.1667C2.125 21.1778 2.76071 22 3.54168 22H13.4584C14.2393 22 14.875 21.1778 14.875 20.1667V0.458348C14.875 0.205004 14.7166 0 14.5208 0ZM14.1667 20.1667C14.1667 20.672 13.8492 21.0833 13.4584 21.0833H3.54168C3.15084 21.0833 2.83336 20.672 2.83336 20.1667V0.916652H14.1667V20.1667Z" fill="#AF4FFB"/>
<path d="M6.37499 6.41665H10.625C11.406 6.41665 12.0417 5.59445 12.0417 4.5833C12.0417 3.57216 11.406 2.75 10.625 2.75H6.37499C5.59402 2.75 4.95831 3.57221 4.95831 4.58335C4.95831 5.59449 5.59402 6.41665 6.37499 6.41665ZM6.37499 3.66665H10.625C11.0158 3.66665 11.3333 4.07799 11.3333 4.5833C11.3333 5.08862 11.0158 5.49996 10.625 5.49996H6.37499C5.98416 5.49996 5.66667 5.08862 5.66667 4.5833C5.66667 4.07799 5.98416 3.66665 6.37499 3.66665Z" fill="#AF4FFB"/>
</svg>
