<svg width="49" height="45" viewBox="0 0 49 45" fill="none" xmlns="http://www.w3.org/2000/svg">
<g clip-path="url(#clip0)">
<path d="M17.4859 7.19824L2.55625 0C1.25287 0.448154 0.000976562 1.91689 0.000976562 3.6123V34.3476C0.000976562 35.6923 0.71875 36.9053 1.92451 37.6435L13.4089 44.3348C16.1547 46.0492 20.0986 44.2717 20.0986 41.0389V10.8633C20.0986 9.30753 19.1511 7.9628 17.4859 7.19824ZM14.3564 25.1367C14.3564 25.8654 13.7144 26.4551 12.9209 26.4551C12.1274 26.4551 11.4853 25.8654 11.4853 25.1367V19.8633C11.4853 19.1346 12.1274 18.5449 12.9209 18.5449C13.7144 18.5449 14.3564 19.1346 14.3564 19.8633V25.1367Z" fill="#AF4FFB"/>
<path d="M48.4322 21.4497L38.3393 14.9787C37.4349 14.1481 35.8887 14.7363 35.8887 15.9108V19.8633H24.4043C23.6115 19.8633 22.9688 20.4534 22.9688 21.1816V23.8184C22.9688 24.5464 23.6115 25.1367 24.4043 25.1367H35.8887V29.0891C35.8887 30.2635 37.4348 30.8518 38.3391 30.0213L48.4322 23.55C49.1891 23.0225 49.1891 21.9772 48.4322 21.4497Z" fill="#AF4FFB"/>
<path d="M22.9688 27.7734V39.7266H27.2754C29.6502 39.7266 31.582 37.9524 31.582 35.7715V27.7734C26.5476 27.7734 28.0125 27.7734 22.9688 27.7734Z" fill="#AF4FFB"/>
<path d="M27.2754 0H8.73169L18.7634 4.83697L18.7688 4.83952C18.7692 4.8397 18.7693 4.83996 18.7693 4.83996L18.8193 4.86396C21.3988 6.04723 22.9689 8.29898 22.9689 10.8636V17.2266C28.0126 17.2266 26.5477 17.2266 31.5821 17.2266V3.95508C31.5821 1.77416 29.6503 0 27.2754 0Z" fill="#AF4FFB"/>
</g>
<defs>
<clipPath id="clip0">
<rect width="49" height="45" fill="white"/>
</clipPath>
</defs>
</svg>
