<svg width="122" height="50" viewBox="0 0 122 50" fill="none" xmlns="http://www.w3.org/2000/svg">
<path d="M113.346 24.6873L105.745 17.0191C101.281 12.0996 97.0624 12.7547 97.0624 12.7547C97.0624 12.7547 32.0943 12.5877 28.2349 12.4078C24.3754 12.228 23.2086 15.5419 23.2086 15.5419L18.5036 37.1509C18.4044 41.2698 22.1221 41.668 22.1221 41.668C22.1221 41.668 81.5443 42.3959 88.0964 42.7983C94.6485 43.2008 98.3898 40.7946 98.3898 40.7946C98.3898 40.7946 106.874 34.4536 111.536 30.9941C116.199 27.5303 113.346 24.6873 113.346 24.6873ZM104.196 29.7353C102.259 31.5635 98.4182 31.769 96.9207 29.9194C95.6405 28.3438 96.4294 25.732 98.1678 24.3791C100.053 22.9148 103.402 22.6622 104.923 24.4176C106.265 25.959 105.608 28.3995 104.196 29.7353Z" fill="#D35B09"/>
<path d="M114.139 23.7327L106.539 16.0645C102.074 11.1449 97.856 11.8 97.856 11.8C97.856 11.8 32.8879 11.6373 29.0285 11.4532C25.169 11.2691 24.0022 14.5873 24.0022 14.5873L19.2972 36.1963C19.198 40.3152 22.9157 40.7134 22.9157 40.7134C22.9157 40.7134 82.3379 41.4412 88.89 41.8437C95.4421 42.2462 99.1834 39.8399 99.1834 39.8399C99.1834 39.8399 107.668 33.4989 112.33 30.0395C116.993 26.5714 114.139 23.7327 114.139 23.7327ZM105.112 28.8449C103.175 30.6731 99.3346 30.8786 97.8371 29.029C96.5569 27.4534 97.3458 24.8416 99.0842 23.4887C100.969 22.0244 104.318 21.7718 105.839 23.5272C107.176 25.0728 106.52 27.5133 105.112 28.8449Z" fill="#FC7000"/>
<path d="M26.0713 20.59C27.0208 21.1551 27.498 21.9772 27.498 23.0562L27.4932 23.2403L23.9739 23.1803V23.1204C23.9786 22.8121 23.8605 22.5552 23.6149 22.3454C23.3692 22.1356 22.9913 22.0243 22.4812 22.0157C21.9804 22.0072 21.5978 22.0671 21.3285 22.1956C21.0593 22.324 20.9223 22.4867 20.9175 22.6837C20.9128 22.962 21.0876 23.1675 21.4466 23.3088C21.8056 23.4501 22.3867 23.5956 23.1897 23.7541C24.1251 23.9467 24.8951 24.1394 25.4997 24.3406C26.1044 24.5419 26.624 24.863 27.0681 25.2997C27.5121 25.7407 27.7342 26.3273 27.7294 27.068C27.7011 28.3225 27.2145 29.243 26.2697 29.8339C25.3202 30.4247 24.0637 30.7073 22.5 30.6773C20.6766 30.6474 19.2594 30.3434 18.258 29.7696C17.2565 29.1959 16.7699 28.2069 16.7983 26.7982L20.3507 26.8582C20.3412 27.3934 20.4829 27.753 20.7853 27.9371C21.0876 28.1212 21.56 28.2197 22.2072 28.2326C22.6843 28.2411 23.0764 28.2026 23.3929 28.1127C23.7094 28.0228 23.8653 27.8387 23.8747 27.5518C23.8794 27.2949 23.7094 27.0979 23.3692 26.9652C23.0244 26.8325 22.467 26.6826 21.6875 26.5285C20.738 26.3273 19.9539 26.1218 19.335 25.9077C18.7162 25.6979 18.1777 25.3554 17.7242 24.8844C17.2707 24.4134 17.0486 23.784 17.0675 22.9919C17.0912 21.8316 17.6061 20.9839 18.6075 20.453C19.609 19.9221 20.8703 19.6694 22.3914 19.6951C23.8936 19.7251 25.1171 20.0248 26.0713 20.59Z" fill="#D35B09"/>
<path d="M37.678 20.1533L42.3358 20.2346L38.0465 24.5247L42.1988 30.84L37.763 30.763L35.4152 26.8368L33.3414 28.3139L33.2895 30.6859L29.534 30.6217L29.756 20.0205L33.5162 20.0848L33.4218 24.6146L37.678 20.1533Z" fill="#D35B09"/>
<path d="M43.8664 30.8657L44.0884 20.2645L47.8486 20.3287L47.6266 30.9299L43.8664 30.8657Z" fill="#D35B09"/>
<path d="M61.6283 25.8691C61.5527 29.4014 59.4695 31.1354 55.3785 31.0626L50.3098 30.9727L50.5318 20.3716L55.6006 20.4615C59.6915 20.5343 61.7039 22.3368 61.6283 25.8691ZM54.122 28.498L55.3644 28.5194C56.9374 28.5451 57.7452 27.7958 57.7783 26.263L57.7972 25.3382C57.8302 23.8054 57.0555 23.0261 55.4825 23.0005L54.2401 22.979L54.122 28.498Z" fill="#D35B09"/>
<path d="M74.227 22.003C75.3088 22.9578 75.8284 24.3279 75.7906 26.1175C75.7528 27.903 75.1765 29.2559 74.0569 30.1722C72.9373 31.0884 71.369 31.5294 69.3519 31.4952C67.3348 31.4609 65.7901 30.9685 64.713 30.018C63.6407 29.0718 63.121 27.6974 63.1588 25.8992C63.1966 24.1009 63.7729 22.748 64.8878 21.836C66.0026 20.924 67.5663 20.4873 69.5834 20.5216C71.6005 20.5515 73.1499 21.0482 74.227 22.003ZM67.6796 23.6942C67.2498 24.1309 67.0277 24.7218 67.0136 25.471L66.9947 26.4558C66.9805 27.2051 67.1742 27.8045 67.5851 28.254C67.9961 28.7036 68.6008 28.9348 69.4086 28.9476C70.2116 28.9605 70.8305 28.7507 71.2651 28.3183C71.6997 27.8858 71.9264 27.2907 71.9406 26.5414L71.9595 25.5567C71.9737 24.8074 71.7753 24.208 71.3596 23.7584C70.9438 23.3088 70.3345 23.0776 69.5267 23.0648C68.7236 23.0477 68.1048 23.2575 67.6796 23.6942Z" fill="#D35B09"/>
<path d="M85.8478 20.9839L90.5056 21.0653L86.2163 25.3554L90.3686 31.6707L85.9329 31.5936L83.5851 27.6674L81.5113 29.1446L81.4593 31.5166L77.7038 31.4523L77.9258 20.8512L81.6861 20.9154L81.5916 25.4453L85.8478 20.9839Z" fill="#D35B09"/>
<path d="M15.4992 16.5354L15.5606 12.7119C15.5701 12.241 15.5937 11.7529 15.6409 11.2562C15.6882 10.7595 15.7354 10.3399 15.7874 10.0017C15.8393 9.66346 15.8677 9.44939 15.8818 9.35519H15.8157L13.5435 16.5097L10.6005 16.4711L8.53614 9.27384H8.47001C8.47945 9.36804 8.5078 9.58211 8.55504 9.91607C8.60228 10.25 8.64007 10.6653 8.67786 11.1663C8.71565 11.6672 8.72982 12.151 8.72037 12.622L8.65896 16.4454L5.20578 16.3983L5.37584 5.79294L10.6808 5.86144L12.3531 12.0012H12.4192L14.2663 5.90426L19.387 5.97276L19.2264 16.5825L15.4992 16.5354Z" fill="#D35B09"/>
<path d="M29.8694 16.7238L25.0368 11.5088L24.9565 16.6553L21.5033 16.6082L21.6734 6.00275L24.9565 6.04556L29.7891 11.3333L29.8741 6.10979L33.3273 6.15688L33.1572 16.758L29.8694 16.7238Z" fill="#D35B09"/>
<path d="M46.3086 7.55269C47.3951 8.5032 47.9195 9.86901 47.8911 11.6587C47.8628 13.4441 47.2912 14.8014 46.1763 15.7219C45.0615 16.6424 43.4979 17.0877 41.476 17.062C39.4589 17.0363 37.9095 16.5525 36.8324 15.6063C35.7506 14.6601 35.2263 13.29 35.2546 11.4917C35.283 9.69347 35.8498 8.33622 36.96 7.41996C38.0701 6.50371 39.6337 6.05843 41.6508 6.08412C43.6727 6.11409 45.2268 6.60219 46.3086 7.55269ZM39.766 9.2696C39.3408 9.70632 39.1188 10.2972 39.1094 11.0507L39.0952 12.0355C39.081 12.7848 39.2841 13.3842 39.6951 13.8337C40.1061 14.2833 40.7155 14.5102 41.5233 14.5188C42.3263 14.5316 42.9452 14.3175 43.3798 13.8808C43.8144 13.4441 44.0317 12.8533 44.0459 12.0997L44.06 11.1149C44.0742 10.3657 43.8711 9.76626 43.4506 9.31669C43.0349 8.87141 42.4208 8.64021 41.6178 8.63164C40.81 8.6188 40.1959 8.83288 39.766 9.2696Z" fill="#D35B09"/>
<path d="M58.9073 6.77769C59.8001 7.0988 60.504 7.56121 61.0189 8.16919C61.5385 8.77717 61.7889 9.5136 61.7747 10.3742L58.1846 10.3271C58.194 9.8861 57.9814 9.52644 57.5563 9.24814C57.1311 8.96984 56.6115 8.82855 55.9974 8.81999C55.114 8.80714 54.4432 9.01266 53.9803 9.43225C53.522 9.85184 53.2811 10.4555 53.2717 11.2348L53.2575 12.2195C53.2433 12.9988 53.4606 13.6068 53.9094 14.0392C54.3582 14.4716 55.0195 14.6943 55.9076 14.7028C56.5217 14.7114 57.0414 14.5872 57.476 14.3304C57.9106 14.0735 58.1326 13.7395 58.1373 13.3285L55.4825 13.2942L55.5155 11.1363L61.7558 11.2177L61.6614 17.1348L59.7246 17.1091L59.3655 16.0558C58.2885 16.865 56.8855 17.2547 55.1612 17.2332C53.2244 17.2076 51.7742 16.728 50.8152 15.7946C49.8563 14.8613 49.3886 13.4869 49.4169 11.6672C49.4453 9.86897 50.0216 8.51172 51.1412 7.59546C52.2608 6.67921 53.8433 6.23393 55.884 6.2639C57.0083 6.28959 58.0145 6.45657 58.9073 6.77769Z" fill="#D35B09"/>
<path d="M74.638 7.92083C75.7245 8.87133 76.2488 10.2371 76.2205 12.0268C76.1921 13.8165 75.6205 15.1695 74.5057 16.09C73.3909 17.0106 71.8225 17.4558 69.8054 17.4302C67.7883 17.4045 66.2388 16.9207 65.1618 15.9744C64.0847 15.0282 63.5556 13.6581 63.584 11.8599C63.6123 10.0616 64.1792 8.70435 65.2893 7.7881C66.3994 6.87185 67.9631 6.42656 69.9802 6.45225C72.002 6.48651 73.5515 6.9746 74.638 7.92083ZM68.0953 9.64201C67.6702 10.0787 67.4482 10.6696 67.4387 11.4231L67.4245 12.4079C67.4104 13.1572 67.6135 13.7566 68.0245 14.2062C68.4355 14.6557 69.0448 14.8826 69.8526 14.8912C70.6557 14.904 71.2745 14.69 71.7091 14.2532C72.1437 13.8165 72.3658 13.2257 72.3752 12.4721L72.3894 11.4874C72.4036 10.7381 72.2004 10.1387 71.78 9.68911C71.3643 9.24383 70.7502 9.01262 69.9471 9.00406C69.1393 8.99122 68.5252 9.20529 68.0953 9.64201Z" fill="#D35B09"/>
<path d="M16.1275 15.9574L16.1889 12.134C16.1983 11.663 16.2219 11.1749 16.2692 10.6782C16.3164 10.1816 16.3637 9.76199 16.4156 9.42375C16.4676 9.0855 16.4959 8.87143 16.5101 8.77723H16.444L14.1718 15.9317L11.2288 15.8932L9.1644 8.70016H9.09827C9.10771 8.79436 9.13606 9.00844 9.1833 9.3424C9.23054 9.67636 9.26833 10.0917 9.30612 10.5926C9.34391 11.0936 9.35808 11.5774 9.34863 12.0483L9.28722 15.8718L5.83404 15.8247L6.0041 5.22354L11.3091 5.29205L12.9813 11.4318H13.0475L14.8945 5.33486L20.0152 5.40337L19.8452 16.0045L16.1275 15.9574Z" fill="#B6D4F2"/>
<path d="M30.4929 16.1458L25.6603 10.9351L25.58 16.0816L22.1268 16.0345L22.2969 5.43335L25.58 5.47617L30.4126 10.7639L30.4976 5.54039L33.9508 5.58749L33.776 16.1886L30.4929 16.1458Z" fill="#B6D4F2"/>
<path d="M46.9322 6.97475C48.0187 7.92526 48.543 9.29107 48.5147 11.0808C48.4863 12.8662 47.9147 14.2234 46.7999 15.144C45.685 16.0645 44.1214 16.5098 42.0996 16.4841C40.0825 16.4584 38.533 15.9746 37.456 15.0284C36.3742 14.0821 35.8498 12.712 35.8782 10.9138C35.9065 9.11553 36.4734 7.75828 37.5835 6.84202C38.6936 5.92577 40.2573 5.48049 42.2744 5.50618C44.2962 5.53615 45.8504 6.02425 46.9322 6.97475ZM40.3943 8.69165C39.9691 9.12837 39.7471 9.71923 39.7376 10.4728L39.7235 11.4575C39.7093 12.2068 39.9124 12.8062 40.3234 13.2558C40.7344 13.7054 41.3438 13.9323 42.1516 13.9408C42.9546 13.9537 43.5735 13.7396 44.0081 13.3029C44.4427 12.8662 44.66 12.2753 44.6741 11.5218L44.6883 10.537C44.7025 9.78773 44.4993 9.18831 44.0789 8.73875C43.6632 8.29347 43.0491 8.06227 42.246 8.0537C41.4335 8.04086 40.8194 8.25494 40.3943 8.69165Z" fill="#B6D4F2"/>
<path d="M59.5309 6.19973C60.4237 6.52084 61.1276 6.98325 61.6425 7.59123C62.1621 8.19921 62.4125 8.93564 62.3983 9.79623L58.8081 9.74914C58.8176 9.30814 58.605 8.94848 58.1798 8.67018C57.7547 8.39188 57.235 8.25059 56.6209 8.24203C55.7376 8.22918 55.0668 8.4347 54.6038 8.85429C54.1456 9.27388 53.9047 9.87758 53.8952 10.6568L53.8811 11.6416C53.8669 12.4208 54.0842 13.0288 54.533 13.4612C54.9817 13.8937 55.6431 14.1163 56.5312 14.1292C57.1453 14.1377 57.6649 14.0136 58.0995 13.7567C58.5341 13.4998 58.7561 13.1658 58.7609 12.7548L56.106 12.7205L56.1391 10.5626L62.3794 10.644L62.2849 16.5611L60.3481 16.5354L59.9891 15.4821C58.912 16.2914 57.509 16.681 55.7848 16.6596C53.848 16.6339 52.3977 16.1543 51.4388 15.2252C50.4798 14.2919 50.0122 12.9175 50.0405 11.0978C50.0689 9.29957 50.6452 7.94232 51.7647 7.02607C52.8843 6.10981 54.4668 5.66453 56.5076 5.6945C57.6366 5.71163 58.6428 5.87861 59.5309 6.19973Z" fill="#B6D4F2"/>
<path d="M75.2615 7.34716C76.348 8.29766 76.8723 9.66348 76.844 11.4532C76.8157 13.2386 76.2441 14.5958 75.1292 15.5164C74.0144 16.4369 72.446 16.8822 70.4289 16.8565C68.4118 16.8308 66.8624 16.347 65.7853 15.4008C64.7083 14.4545 64.1792 13.0844 64.2075 11.2862C64.2359 9.48793 64.8027 8.13068 65.9129 7.21443C67.023 6.29818 68.5866 5.85289 70.6037 5.87858C72.6255 5.90855 74.1797 6.39665 75.2615 7.34716ZM68.7236 9.06406C68.2984 9.50078 68.0764 10.0916 68.067 10.8452L68.0528 11.8299C68.0386 12.5792 68.2417 13.1786 68.6527 13.6282C69.0637 14.0778 69.6731 14.3047 70.4809 14.3132C71.2839 14.3261 71.9028 14.112 72.3374 13.6753C72.772 13.2386 72.994 12.6477 73.0035 11.8942L73.0176 10.9094C73.0318 10.1601 72.8287 9.56072 72.4082 9.11116C71.9925 8.66588 71.3784 8.43467 70.5754 8.42611C69.7628 8.41326 69.1487 8.62734 68.7236 9.06406Z" fill="#B6D4F2"/>
<path d="M26.6949 20.0292C27.6444 20.5944 28.1215 21.4164 28.1215 22.4954L28.1168 22.6795L24.5975 22.6195V22.5596C24.6022 22.2513 24.4841 21.9944 24.2384 21.7846C23.9928 21.5748 23.6149 21.4635 23.1047 21.4549C22.604 21.4464 22.2213 21.5063 21.9521 21.6348C21.6828 21.7632 21.5458 21.9259 21.5411 22.1229C21.5364 22.4012 21.7111 22.6067 22.0702 22.748C22.4292 22.8893 23.0102 23.0348 23.8133 23.1933C24.7486 23.3859 25.5186 23.5786 26.1233 23.7798C26.7279 23.9811 27.2476 24.3022 27.6916 24.7389C28.1357 25.1799 28.3577 25.7665 28.353 26.5072C28.3246 27.7617 27.8381 28.6822 26.8933 29.2731C25.9438 29.8639 24.6872 30.1465 23.1236 30.1165C21.3002 30.0866 19.883 29.7826 18.8815 29.2088C17.88 28.6351 17.3935 27.6461 17.4218 26.2374L20.9742 26.2974C20.9648 26.8326 21.1065 27.1922 21.4088 27.3763C21.7111 27.5604 22.1835 27.6589 22.8307 27.6718C23.3078 27.6803 23.6999 27.6418 24.0164 27.5519C24.3282 27.4663 24.4888 27.2779 24.4983 26.991C24.503 26.7341 24.3329 26.5372 23.9928 26.4044C23.6479 26.2717 23.0905 26.1218 22.3111 25.9677C21.3616 25.7665 20.5774 25.561 19.9586 25.3469C19.3397 25.1371 18.8012 24.7946 18.3477 24.3236C17.8942 23.8526 17.6722 23.2232 17.6911 22.4311C17.7147 21.2708 18.2296 20.4231 19.2311 19.8922C20.2326 19.3613 21.4938 19.1087 23.0149 19.1343C24.5172 19.1686 25.7406 19.464 26.6949 20.0292Z" fill="#B6D4F2"/>
<path d="M38.3016 19.5925L42.9594 19.6738L38.67 23.9639L42.8224 30.2792L38.3866 30.2022L36.0388 26.276L33.965 27.7531L33.913 30.1251L30.1575 30.0609L30.3795 19.4597L34.1351 19.524L34.0406 24.0539L38.3016 19.5925Z" fill="#B6D4F2"/>
<path d="M44.4899 30.3049L44.7119 19.7037L48.4674 19.768L48.2454 30.3691L44.4899 30.3049Z" fill="#B6D4F2"/>
<path d="M62.2518 25.3083C62.1763 28.8406 60.093 30.5746 56.0021 30.5018L50.9333 30.4119L51.1553 19.8108L56.2241 19.9007C60.315 19.9735 62.3227 21.776 62.2518 25.3083ZM54.7455 27.9415L55.9879 27.9629C57.561 27.9886 58.3688 27.2393 58.4018 25.7065L58.4207 24.7817C58.4538 23.2489 57.6791 22.4696 56.106 22.4439L54.8636 22.4225L54.7455 27.9415Z" fill="#B6D4F2"/>
<path d="M74.8505 21.4422C75.9323 22.397 76.4519 23.7671 76.4141 25.5568C76.3764 27.3464 75.8 28.6951 74.6805 29.6114C73.5609 30.5276 71.9926 30.9686 69.9755 30.9344C67.9583 30.9001 66.4136 30.4078 65.3366 29.4573C64.2642 28.511 63.7446 27.1366 63.7824 25.3384C63.8202 23.5401 64.3965 22.1872 65.5113 21.2752C66.6262 20.3632 68.1898 19.9265 70.2069 19.9608C72.2193 19.995 73.7688 20.4917 74.8505 21.4422ZM68.2985 23.1334C67.8686 23.5701 67.6466 24.161 67.6324 24.9102L67.6135 25.895C67.5993 26.6443 67.793 27.2437 68.204 27.6933C68.615 28.1428 69.2196 28.374 70.0274 28.3869C70.8305 28.3997 71.454 28.1899 71.8839 27.7575C72.3185 27.325 72.5453 26.7299 72.5594 25.9806L72.5783 24.9959C72.5925 24.2466 72.3941 23.6472 71.9784 23.1976C71.5627 22.7481 70.9533 22.5169 70.1455 22.504C69.3472 22.4869 68.7283 22.701 68.2985 23.1334Z" fill="#B6D4F2"/>
<path d="M86.4714 20.4274L91.1292 20.5088L86.8398 24.7989L90.9922 31.1142L86.5564 31.0371L84.2086 27.1109L82.1348 28.588L82.0828 30.96L78.3273 30.8958L78.5493 20.2947L82.3049 20.3589L82.2104 24.8888L86.4714 20.4274Z" fill="#B6D4F2"/>
</svg>
