<svg width="143" height="63" viewBox="0 0 143 63" fill="none" xmlns="http://www.w3.org/2000/svg">
<path d="M132.856 31.1061L123.947 21.4441C118.714 15.2455 113.77 16.0709 113.77 16.0709C113.77 16.0709 37.6188 15.8605 33.095 15.6339C28.5712 15.4073 27.2036 19.5829 27.2036 19.5829L21.6887 46.8102C21.5724 52 25.93 52.5017 25.93 52.5017C25.93 52.5017 95.5807 53.4188 103.261 53.9259C110.94 54.433 115.326 51.4012 115.326 51.4012C115.326 51.4012 125.27 43.4115 130.735 39.0525C136.2 34.6882 132.856 31.1061 132.856 31.1061ZM122.131 37.4665C119.861 39.7701 115.359 40.029 113.604 37.6985C112.103 35.7132 113.028 32.4224 115.066 30.7176C117.275 28.8726 121.201 28.5543 122.984 30.7662C124.556 32.7083 123.786 35.7833 122.131 37.4665Z" fill="#D35B09"/>
<path d="M133.786 29.9032L124.877 20.2412C119.645 14.0426 114.7 14.868 114.7 14.868C114.7 14.868 38.549 14.663 34.0252 14.431C29.5014 14.1991 28.1338 18.38 28.1338 18.38L22.6189 45.6073C22.5026 50.7971 26.8602 51.2988 26.8602 51.2988C26.8602 51.2988 96.5109 52.2159 104.191 52.723C111.871 53.2301 116.256 50.1983 116.256 50.1983C116.256 50.1983 126.201 42.2087 131.666 37.8497C137.131 33.4799 133.786 29.9032 133.786 29.9032ZM123.205 36.3445C120.935 38.6481 116.433 38.9071 114.678 36.5765C113.177 34.5912 114.102 31.3004 116.14 29.5957C118.349 27.7507 122.275 27.4324 124.058 29.6443C125.625 31.5918 124.855 34.6668 123.205 36.3445Z" fill="#FC7000"/>
<path d="M30.559 25.9434C31.6719 26.6555 32.2312 27.6913 32.2312 29.0508L32.2257 29.2828L28.1005 29.2072V29.1317C28.1061 28.7433 27.9677 28.4196 27.6797 28.1553C27.3918 27.8909 26.9488 27.7506 26.3508 27.7399C25.7639 27.7291 25.3154 27.8046 24.9998 27.9664C24.6842 28.1283 24.5236 28.3333 24.5181 28.5814C24.5125 28.9321 24.7174 29.1911 25.1382 29.3691C25.559 29.5471 26.2401 29.7305 27.1814 29.9301C28.2777 30.1729 29.1803 30.4157 29.889 30.6692C30.5978 30.9228 31.2068 31.3274 31.7273 31.8776C32.2478 32.4333 32.508 33.1724 32.5025 34.1057C32.4693 35.6863 31.899 36.8462 30.7916 37.5907C29.6786 38.3352 28.2058 38.6912 26.373 38.6535C24.2357 38.6157 22.5746 38.2327 21.4007 37.5098C20.2269 36.7869 19.6565 35.5407 19.6898 33.7658L23.8536 33.8413C23.8426 34.5157 24.0087 34.9688 24.363 35.2008C24.7174 35.4328 25.2711 35.5569 26.0297 35.5731C26.5889 35.5838 27.0485 35.5353 27.4195 35.422C27.7905 35.3087 27.9732 35.0767 27.9843 34.7153C27.9898 34.3916 27.7905 34.1434 27.3918 33.9762C26.9876 33.809 26.3342 33.6202 25.4206 33.4259C24.3077 33.1724 23.3885 32.9134 22.6632 32.6437C21.9378 32.3794 21.3066 31.9478 20.775 31.3544C20.2435 30.7609 19.9832 29.9679 20.0054 28.9699C20.0331 27.5079 20.6366 26.4397 21.8104 25.7708C22.9843 25.1018 24.4627 24.7835 26.2456 24.8159C28.0064 24.8537 29.4405 25.2313 30.559 25.9434Z" fill="#D35B09"/>
<path d="M44.1636 25.3932L49.6231 25.4957L44.5954 30.9012L49.4625 38.8585L44.2632 38.7614L41.5113 33.8144L39.0805 35.6756L39.0196 38.6643L34.6177 38.5833L34.8779 25.2259L39.2854 25.3068L39.1747 31.0145L44.1636 25.3932Z" fill="#D35B09"/>
<path d="M51.4171 38.8908L51.6773 25.5334L56.0848 25.6143L55.8246 38.9717L51.4171 38.8908Z" fill="#D35B09"/>
<path d="M72.2364 32.5951C72.1478 37.0458 69.706 39.2306 64.9109 39.1389L58.9696 39.0256L59.2299 25.6682L65.1711 25.7815C69.9662 25.8732 72.325 28.1444 72.2364 32.5951ZM63.438 35.9075L64.8943 35.9344C66.7381 35.9668 67.685 35.0227 67.7237 33.0914L67.7459 31.9261C67.7846 29.9948 66.8765 29.013 65.0327 28.9806L63.5765 28.9536L63.438 35.9075Z" fill="#D35B09"/>
<path d="M87.0037 27.7238C88.2717 28.9268 88.8808 30.6531 88.8365 32.9081C88.7922 35.1577 88.1167 36.8625 86.8044 38.017C85.4921 39.1714 83.6538 39.7271 81.2895 39.6839C78.9252 39.6408 77.1146 39.0204 75.8521 37.8228C74.5952 36.6305 73.9861 34.8988 74.0304 32.633C74.0747 30.3672 74.7502 28.6625 76.057 27.5134C77.3637 26.3643 79.1965 25.814 81.5608 25.8572C83.9251 25.8949 85.7413 26.5207 87.0037 27.7238ZM79.3294 29.8547C78.8255 30.405 78.5653 31.1494 78.5487 32.0935L78.5265 33.3343C78.5099 34.2784 78.7369 35.0337 79.2186 35.6001C79.7004 36.1666 80.4091 36.4579 81.3559 36.4741C82.2972 36.4903 83.0226 36.2259 83.532 35.681C84.0414 35.1362 84.3072 34.3863 84.3238 33.4422L84.3459 32.2014C84.3626 31.2573 84.13 30.5021 83.6427 29.9356C83.1555 29.3692 82.4412 29.0779 81.4944 29.0617C80.5531 29.0401 79.8277 29.3044 79.3294 29.8547Z" fill="#D35B09"/>
<path d="M100.625 26.4398L106.084 26.5423L101.057 31.9478L105.924 39.9051L100.725 39.808L97.9727 34.861L95.5419 36.7222L95.481 39.7109L91.079 39.6299L91.3393 26.2725L95.7468 26.3534L95.636 32.0611L100.625 26.4398Z" fill="#D35B09"/>
<path d="M18.1671 20.8345L18.2391 16.017C18.2502 15.4236 18.2779 14.8086 18.3332 14.1828C18.3886 13.557 18.444 13.0283 18.5049 12.6021C18.5658 12.1759 18.599 11.9062 18.6156 11.7875H18.5381L15.8748 20.8022L12.4252 20.7536L10.0055 11.685H9.92797C9.93905 11.8037 9.97227 12.0734 10.0276 12.4942C10.083 12.915 10.1273 13.4383 10.1716 14.0695C10.2159 14.7007 10.2325 15.3103 10.2214 15.9037L10.1495 20.7212L6.10187 20.6619L6.3012 7.29907L12.5193 7.38539L14.4794 15.1215H14.557L16.7219 7.43934L22.7241 7.52565L22.5358 20.8939L18.1671 20.8345Z" fill="#D35B09"/>
<path d="M35.0108 21.0719L29.3464 14.5011L29.2523 20.9856L25.2047 20.9262L25.404 7.56342L29.2523 7.61736L34.9167 14.2799L35.0164 7.69828L39.064 7.75763L38.8646 21.1151L35.0108 21.0719Z" fill="#D35B09"/>
<path d="M54.2798 9.51637C55.5533 10.714 56.1679 12.4349 56.1347 14.6899C56.1015 16.9396 55.4315 18.6497 54.1247 19.8096C52.818 20.9694 50.9852 21.5305 48.6154 21.4981C46.251 21.4658 44.4349 20.8562 43.1724 19.6639C41.9044 18.4717 41.2898 16.7453 41.3231 14.4795C41.3563 12.2137 42.0207 10.5036 43.3219 9.34913C44.6231 8.19465 46.4559 7.6336 48.8202 7.66597C51.1901 7.70373 53.0118 8.31873 54.2798 9.51637ZM46.6109 11.6797C46.1126 12.2299 45.8524 12.9744 45.8413 13.9239L45.8247 15.1647C45.8081 16.1088 46.0462 16.864 46.5279 17.4305C47.0096 17.9969 47.7239 18.2829 48.6707 18.2936C49.612 18.3098 50.3374 18.0401 50.8468 17.4898C51.3562 16.9396 51.6109 16.1951 51.6275 15.2456L51.6441 14.0048C51.6607 13.0607 51.4226 12.3055 50.9298 11.739C50.4426 11.178 49.7228 10.8866 48.7815 10.8758C47.8346 10.8597 47.1148 11.1294 46.6109 11.6797Z" fill="#D35B09"/>
<path d="M69.0471 8.53987C70.0936 8.94448 70.9186 9.52711 71.5222 10.2932C72.1312 11.0592 72.4247 11.9871 72.4081 13.0715L68.1999 13.0121C68.211 12.4565 67.9618 12.0033 67.4635 11.6527C66.9652 11.302 66.3561 11.124 65.6363 11.1132C64.6008 11.097 63.8146 11.3559 63.2719 11.8846C62.7348 12.4133 62.4525 13.174 62.4414 14.1558L62.4248 15.3966C62.4082 16.3785 62.6629 17.1445 63.1889 17.6894C63.7149 18.2343 64.4901 18.5148 65.5311 18.5256C66.2509 18.5364 66.86 18.3799 67.3694 18.0562C67.8788 17.7325 68.139 17.3118 68.1446 16.7939L65.0327 16.7507L65.0715 14.0317L72.3859 14.1342L72.2752 21.5898L70.005 21.5574L69.5842 20.2303C68.3217 21.2499 66.6772 21.7408 64.6562 21.7139C62.386 21.6815 60.6861 21.0773 59.5621 19.9012C58.4381 18.7252 57.8899 16.9935 57.9231 14.7007C57.9564 12.4349 58.6319 10.7248 59.9442 9.57027C61.2565 8.41579 63.1114 7.85474 65.5034 7.8925C66.8212 7.92487 68.0006 8.13527 69.0471 8.53987Z" fill="#D35B09"/>
<path d="M87.4855 9.98021C88.759 11.1778 89.3737 12.8988 89.3404 15.1538C89.3072 17.4088 88.6372 19.1135 87.3305 20.2734C86.0237 21.4333 84.1854 21.9943 81.8211 21.962C79.4568 21.9296 77.6406 21.32 76.3782 20.1278C75.1157 18.9355 74.4956 17.2092 74.5288 14.9434C74.562 12.6776 75.2265 10.9674 76.5277 9.81297C77.8289 8.65849 79.6616 8.09743 82.026 8.1298C84.3958 8.17296 86.212 8.78796 87.4855 9.98021ZM79.8167 12.1489C79.3183 12.6992 79.0581 13.4436 79.047 14.3931L79.0304 15.6339C79.0138 16.578 79.2519 17.3333 79.7336 17.8997C80.2154 18.4662 80.9296 18.7521 81.8765 18.7629C82.8178 18.7791 83.5431 18.5093 84.0525 17.9591C84.5619 17.4088 84.8222 16.6643 84.8333 15.7148L84.8499 14.474C84.8665 13.53 84.6284 12.7747 84.1356 12.2082C83.6483 11.6472 82.9285 11.3559 81.9872 11.3451C81.0404 11.3289 80.3206 11.5986 79.8167 12.1489Z" fill="#D35B09"/>
<path d="M18.9035 20.1063L18.9755 15.2888C18.9866 14.6954 19.0142 14.0804 19.0696 13.4546C19.125 12.8288 19.1804 12.3001 19.2413 11.8739C19.3022 11.4477 19.3354 11.178 19.352 11.0593H19.2745L16.6112 20.074L13.1616 20.0254L10.7419 10.9622H10.6644C10.6754 11.0809 10.7087 11.3506 10.764 11.7714C10.8194 12.1922 10.8637 12.7155 10.908 13.3467C10.9523 13.9779 10.9689 14.5875 10.9578 15.1809L10.8858 19.9984L6.83826 19.9391L7.03759 6.58167L13.2557 6.66798L15.2158 14.4041H15.2933L17.4583 6.72193L23.4605 6.80825L23.2612 20.1657L18.9035 20.1063Z" fill="#B6D4F2"/>
<path d="M35.7417 20.3437L30.0773 13.7783L29.9832 20.2628L25.9356 20.2034L26.1349 6.84601L29.9832 6.89996L35.6476 13.5625L35.7472 6.98088L39.7948 7.04022L39.59 20.3976L35.7417 20.3437Z" fill="#B6D4F2"/>
<path d="M55.0106 8.78819C56.2842 9.98583 56.8988 11.7068 56.8655 13.9618C56.8323 16.2114 56.1623 17.9215 54.8556 19.0814C53.5489 20.2413 51.7161 20.8023 49.3462 20.7699C46.9819 20.7376 45.1657 20.128 43.9033 18.9357C42.6353 17.7435 42.0207 16.0172 42.0539 13.7514C42.0871 11.4856 42.7516 9.77543 44.0528 8.62095C45.354 7.46647 47.1868 6.90542 49.5511 6.93779C51.921 6.97555 53.7426 7.59055 55.0106 8.78819ZM47.3474 10.9515C46.849 11.5018 46.5888 12.2462 46.5777 13.1957L46.5611 14.4365C46.5445 15.3806 46.7826 16.1358 47.2643 16.7023C47.746 17.2687 48.4603 17.5547 49.4071 17.5655C50.3484 17.5816 51.0738 17.3119 51.5832 16.7616C52.0926 16.2114 52.3473 15.4669 52.3639 14.5174L52.3805 13.2766C52.3971 12.3325 52.159 11.5773 51.6663 11.0108C51.179 10.4498 50.4592 10.1585 49.5179 10.1477C48.5655 10.1315 47.8457 10.4012 47.3474 10.9515Z" fill="#B6D4F2"/>
<path d="M69.778 7.81168C70.8245 8.21628 71.6495 8.79892 72.253 9.56497C72.8621 10.331 73.1556 11.2589 73.139 12.3433L68.9308 12.2839C68.9419 11.7283 68.6927 11.2751 68.1944 10.9245C67.6961 10.5738 67.087 10.3958 66.3672 10.385C65.3317 10.3688 64.5455 10.6277 64.0028 11.1564C63.4657 11.6851 63.1834 12.4458 63.1723 13.4276L63.1557 14.6684C63.1391 15.6503 63.3938 16.4163 63.9198 16.9612C64.4458 17.5061 65.221 17.7866 66.262 17.8028C66.9818 17.8136 67.5908 17.6571 68.1003 17.3334C68.6097 17.0097 68.8699 16.589 68.8754 16.0711L65.7636 16.0279L65.8024 13.3089L73.1168 13.4114L73.0061 20.867L70.7359 20.8346L70.3151 19.5075C69.0526 20.5271 67.4081 21.0181 65.3871 20.9911C63.1169 20.9587 61.417 20.3545 60.293 19.1838C59.169 18.0078 58.6208 16.2761 58.654 13.9833C58.6873 11.7175 59.3628 10.0073 60.6751 8.85287C61.9873 7.69839 63.8423 7.13733 66.2343 7.1751C67.5576 7.19667 68.737 7.40707 69.778 7.81168Z" fill="#B6D4F2"/>
<path d="M88.2163 9.2574C89.4898 10.455 90.1045 12.176 90.0712 14.431C90.038 16.6806 89.368 18.3907 88.0613 19.5506C86.7545 20.7105 84.9162 21.2715 82.5519 21.2392C80.1876 21.2068 78.3714 20.5972 77.109 19.4049C75.8466 18.2127 75.2264 16.4864 75.2596 14.2206C75.2929 11.9548 75.9573 10.2446 77.2585 9.09016C78.5597 7.93568 80.3925 7.37463 82.7568 7.40699C85.1267 7.44476 86.9483 8.05976 88.2163 9.2574ZM80.553 11.4207C80.0547 11.971 79.7945 12.7154 79.7834 13.6649L79.7668 14.9057C79.7502 15.8498 79.9883 16.6051 80.47 17.1715C80.9517 17.738 81.666 18.0239 82.6128 18.0347C83.5541 18.0509 84.2795 17.7811 84.7889 17.2309C85.2983 16.6806 85.5585 15.9361 85.5696 14.9866L85.5862 13.7458C85.6028 12.8018 85.3647 12.0465 84.8719 11.48C84.3847 10.919 83.6649 10.6277 82.7236 10.6169C81.7712 10.6007 81.0514 10.8704 80.553 11.4207Z" fill="#B6D4F2"/>
<path d="M31.2899 25.2367C32.4028 25.9488 32.9621 26.9846 32.9621 28.3441L32.9565 28.5761L28.8314 28.5006V28.425C28.837 28.0366 28.6985 27.7129 28.4106 27.4486C28.1227 27.1843 27.6797 27.044 27.0817 27.0332C26.4948 27.0224 26.0463 27.0979 25.7307 27.2598C25.4151 27.4216 25.2545 27.6266 25.249 27.8748C25.2434 28.2254 25.4483 28.4844 25.8691 28.6624C26.2899 28.8404 26.971 29.0239 27.9123 29.2235C29.0086 29.4662 29.9112 29.709 30.6199 29.9626C31.3286 30.2161 31.9377 30.6207 32.4582 31.171C32.9787 31.7266 33.2389 32.4657 33.2334 33.399C33.2002 34.9797 32.6299 36.1396 31.5224 36.884C30.4095 37.6285 28.9366 37.9846 27.1039 37.9468C24.9666 37.909 23.3055 37.526 22.1316 36.8031C20.9577 36.0802 20.3874 34.834 20.4207 33.0591L24.5845 33.1347C24.5734 33.809 24.7396 34.2622 25.0939 34.4941C25.4483 34.7261 26.002 34.8502 26.7606 34.8664C27.3198 34.8772 27.7794 34.8286 28.1504 34.7153C28.5158 34.6074 28.7041 34.3701 28.7152 34.0086C28.7207 33.6849 28.5214 33.4368 28.1227 33.2695C27.7185 33.1023 27.0651 32.9135 26.1515 32.7193C25.0386 32.4657 24.1194 32.2068 23.3941 31.937C22.6687 31.6727 22.0375 31.2411 21.5059 30.6477C20.9744 30.0543 20.7141 29.2612 20.7363 28.2632C20.7639 26.8012 21.3675 25.7331 22.5413 25.0641C23.7152 24.3952 25.1936 24.0769 26.9765 24.1092C28.7373 24.1524 30.1714 24.5246 31.2899 25.2367Z" fill="#B6D4F2"/>
<path d="M44.8945 24.6865L50.354 24.789L45.3264 30.1945L50.1934 38.1518L44.9941 38.0547L42.2422 33.1077L39.8114 34.9689L39.7505 37.9576L35.3486 37.8767L35.6088 24.5193L40.0108 24.6002L39.9 30.3078L44.8945 24.6865Z" fill="#B6D4F2"/>
<path d="M52.148 38.1841L52.4083 24.8267L56.8102 24.9076L56.55 38.265L52.148 38.1841Z" fill="#B6D4F2"/>
<path d="M72.9673 31.8884C72.8787 36.3391 70.4369 38.524 65.6418 38.4323L59.7005 38.319L59.9607 24.9615L65.902 25.0748C70.6971 25.1665 73.0503 27.4377 72.9673 31.8884ZM64.1689 35.2062L65.6252 35.2332C67.469 35.2655 68.4158 34.3215 68.4546 32.3901L68.4767 31.2249C68.5155 29.2935 67.6074 28.3117 65.7636 28.2793L64.3073 28.2523L64.1689 35.2062Z" fill="#B6D4F2"/>
<path d="M87.7346 27.0171C89.0026 28.2201 89.6117 29.9465 89.5674 32.2015C89.5231 34.4565 88.8476 36.1558 87.5353 37.3103C86.223 38.4648 84.3847 39.0205 82.0204 38.9773C79.6561 38.9341 77.8455 38.3137 76.583 37.1161C75.3261 35.9239 74.717 34.1921 74.7613 31.9263C74.8056 29.6605 75.4811 27.9558 76.7879 26.8067C78.0946 25.6576 79.9274 25.1074 82.2917 25.1505C84.6505 25.1937 86.4666 25.8195 87.7346 27.0171ZM80.0547 29.148C79.5509 29.6983 79.2906 30.4428 79.274 31.3869L79.2519 32.6277C79.2353 33.5717 79.4623 34.327 79.944 34.8935C80.4257 35.4599 81.1345 35.7512 82.0813 35.7674C83.0226 35.7836 83.7535 35.5193 84.2574 34.9744C84.7668 34.4295 85.0325 33.6796 85.0492 32.7356L85.0713 31.4948C85.0879 30.5507 84.8554 29.7954 84.3681 29.229C83.8808 28.6625 83.1666 28.3712 82.2197 28.355C81.284 28.3334 80.5586 28.6032 80.0547 29.148Z" fill="#B6D4F2"/>
<path d="M101.356 25.7385L106.815 25.841L101.788 31.2465L106.655 39.2038L101.455 39.1067L98.7035 34.1597L96.2727 36.0209L96.2118 39.0096L91.8099 38.9287L92.0701 25.5712L96.4721 25.6521L96.3613 31.3598L101.356 25.7385Z" fill="#B6D4F2"/>
</svg>
