<svg width="81" height="79" viewBox="0 0 81 79" fill="none" xmlns="http://www.w3.org/2000/svg">
<g clip-path="url(#clip0)">
<path d="M17.3093 14.9672H2.38233C1.06644 14.9672 0 13.9264 0 12.6437C0 11.361 1.06644 10.3202 2.38233 10.3202H17.3093C18.6252 10.3202 19.6917 11.361 19.6917 12.6437C19.6917 13.9264 18.6252 14.9672 17.3093 14.9672Z" fill="black"/>
<path d="M25.8393 23.2859C19.8221 23.2859 14.927 18.5117 14.927 12.6435C14.927 6.7742 19.8221 2 25.8393 2C31.8565 2 36.7516 6.7742 36.7516 12.6435C36.7516 18.5118 31.8565 23.2859 25.8393 23.2859ZM25.8393 6.64719C22.4494 6.64719 19.6917 9.33736 19.6917 12.6435C19.6917 15.9497 22.4494 18.6387 25.8393 18.6387C29.2292 18.6387 31.9869 15.9497 31.9869 12.6435C31.9869 9.33736 29.2292 6.64719 25.8393 6.64719Z" fill="black"/>
<path d="M78.6177 14.9672H43.0113C41.6954 14.9672 40.629 13.9264 40.629 12.6437C40.629 11.361 41.6954 10.3202 43.0113 10.3202H78.6175C79.9334 10.3202 80.9998 11.361 80.9998 12.6437C80.9998 13.9264 79.9336 14.9672 78.6177 14.9672Z" fill="black"/>
<path d="M57.826 51.3632C51.8086 51.3632 46.9138 46.589 46.9138 40.7208C46.9138 34.8527 51.8088 30.0785 57.826 30.0785C63.8433 30.0785 68.7383 34.8527 68.7383 40.7208C68.7383 46.589 63.8434 51.3632 57.826 51.3632ZM57.826 34.7257C54.4362 34.7257 51.6784 37.4147 51.6784 40.7208C51.6784 44.027 54.4362 46.716 57.826 46.716C61.2159 46.716 63.9737 44.027 63.9737 40.7208C63.9737 37.4147 61.2159 34.7257 57.826 34.7257Z" fill="black"/>
<path d="M40.6545 43.0444H2.38233C1.06644 43.0444 0 42.0036 0 40.7209C0 39.4382 1.06644 38.3974 2.38233 38.3974H40.6545C41.9704 38.3974 43.0369 39.4382 43.0369 40.7209C43.0369 42.0036 41.9704 43.0444 40.6545 43.0444Z" fill="black"/>
<path d="M78.6177 43.0444H66.356C65.0401 43.0444 63.9736 42.0036 63.9736 40.7209C63.9736 39.4382 65.0401 38.3974 66.356 38.3974H78.6177C79.9336 38.3974 81 39.4382 81 40.7209C81 42.0036 79.9336 43.0444 78.6177 43.0444Z" fill="black"/>
<path d="M23.174 79.4415C17.1568 79.4415 12.2617 74.6673 12.2617 68.7979C12.2617 62.9298 17.1568 58.1556 23.174 58.1556C29.1912 58.1556 34.0863 62.9298 34.0863 68.7979C34.0863 74.6673 29.1912 79.4415 23.174 79.4415ZM23.174 62.8028C19.7841 62.8028 17.0264 65.4918 17.0264 68.7979C17.0264 72.1041 19.7841 74.7943 23.174 74.7943C26.5639 74.7943 29.3216 72.1041 29.3216 68.7979C29.3216 65.4918 26.5639 62.8028 23.174 62.8028Z" fill="black"/>
<path d="M78.6177 71.1216H40.3455C39.0296 71.1216 37.9632 70.0808 37.9632 68.7981C37.9632 67.5154 39.0296 66.4746 40.3455 66.4746H78.6177C79.9336 66.4746 81 67.5154 81 68.7981C81 70.0808 79.9336 71.1216 78.6177 71.1216Z" fill="black"/>
<path d="M14.644 71.1216H2.38233C1.06644 71.1216 0 70.0808 0 68.7979C0 67.5152 1.06644 66.4744 2.38233 66.4744H14.644C15.9599 66.4744 17.0264 67.5152 17.0264 68.7979C17.0264 70.0808 15.9599 71.1216 14.644 71.1216Z" fill="black"/>
</g>
<defs>
<clipPath id="clip0">
<rect width="81" height="79" fill="white"/>
</clipPath>
</defs>
</svg>
