<svg width="72" height="75" viewBox="0 0 72 75" fill="none" xmlns="http://www.w3.org/2000/svg">
<path d="M48.6562 17.5781H62.1859L46.5469 1.28748V15.3809C46.5469 16.5932 47.4924 17.5781 48.6562 17.5781Z" fill="black"/>
<path d="M14.9062 75H57.0938C60.5832 75 63.4219 72.0431 63.4219 68.4082V21.9727H48.6562C45.1668 21.9727 42.3281 19.0157 42.3281 15.3809V0H14.9062C11.4168 0 8.57812 2.95693 8.57812 6.5918V68.4082C8.57812 72.0431 11.4168 75 14.9062 75ZM27.5625 35.3027H48.6562C49.8222 35.3027 50.7656 36.2855 50.7656 37.5C50.7656 38.7145 49.8222 39.6973 48.6562 39.6973H27.5625C26.3966 39.6973 25.4531 38.7145 25.4531 37.5C25.4531 36.2855 26.3966 35.3027 27.5625 35.3027ZM27.5625 44.0918H48.6562C49.8222 44.0918 50.7656 45.0746 50.7656 46.2891C50.7656 47.5036 49.8222 48.4863 48.6562 48.4863H27.5625C26.3966 48.4863 25.4531 47.5036 25.4531 46.2891C25.4531 45.0746 26.3966 44.0918 27.5625 44.0918ZM27.5625 52.8809H48.6562C49.8222 52.8809 50.7656 53.8636 50.7656 55.0781C50.7656 56.2926 49.8222 57.2754 48.6562 57.2754H27.5625C26.3966 57.2754 25.4531 56.2926 25.4531 55.0781C25.4531 53.8636 26.3966 52.8809 27.5625 52.8809ZM19.125 35.3027C20.2899 35.3027 21.2344 36.2865 21.2344 37.5C21.2344 38.7135 20.2899 39.6973 19.125 39.6973C17.9601 39.6973 17.0156 38.7135 17.0156 37.5C17.0156 36.2865 17.9601 35.3027 19.125 35.3027ZM19.125 44.0918C20.2899 44.0918 21.2344 45.0756 21.2344 46.2891C21.2344 47.5025 20.2899 48.4863 19.125 48.4863C17.9601 48.4863 17.0156 47.5025 17.0156 46.2891C17.0156 45.0756 17.9601 44.0918 19.125 44.0918ZM19.125 52.8809C20.2899 52.8809 21.2344 53.8646 21.2344 55.0781C21.2344 56.2916 20.2899 57.2754 19.125 57.2754C17.9601 57.2754 17.0156 56.2916 17.0156 55.0781C17.0156 53.8646 17.9601 52.8809 19.125 52.8809Z" fill="black"/>
</svg>
